<?xml version="1.0" encoding="utf-8"?>
<!-- Generator: Adobe Illustrator 25.0.1, SVG Export Plug-In . SVG Version: 6.00 Build 0)  -->
<svg version="1.1" id="Layer_1" xmlns="http://www.w3.org/2000/svg" xmlns:xlink="http://www.w3.org/1999/xlink" x="0px" y="0px"
	 viewBox="0 0 32 32" enable-background="new 0 0 32 32" xml:space="preserve">
<g>
	<path fill="#D29D3F" d="M19.25,21.72c-0.09,0.05-0.19,0.09-0.29,0.14c-0.71,0.3-1.47,0.47-2.23,0.56c-0.55,0.07-1.1,0.1-1.64,0.15
		c-0.03,0-0.07,0.01-0.1,0.02h-1.35c-0.24-0.02-0.48-0.03-0.73-0.05c-0.93-0.07-1.86-0.2-2.75-0.49c-0.4-0.13-0.79-0.28-1.13-0.53
		c-0.24-0.18-0.45-0.38-0.51-0.69c-0.01-0.06-0.02-0.12-0.02-0.17c0-0.82,0-1.64,0-2.46c0-0.02,0-0.04,0.01-0.08
		c0.15,0.08,0.29,0.17,0.43,0.24c0.72,0.37,1.5,0.56,2.29,0.69c1.32,0.21,2.66,0.25,3.99,0.2c0.93-0.03,1.85-0.11,2.76-0.31
		c0.4-0.09,0.8-0.19,1.18-0.34c0-0.21,0-0.41,0-0.61c-0.25,0.11-0.52,0.2-0.78,0.28c-0.87,0.25-1.77,0.35-2.67,0.41
		c-0.96,0.06-1.91,0.06-2.87-0.01c-1.12-0.08-2.23-0.22-3.29-0.65c-0.35-0.14-0.68-0.32-0.97-0.58c-0.04-0.04-0.08-0.11-0.08-0.17
		c-0.01-0.8-0.01-1.61,0-2.41c0-0.02,0-0.04,0-0.06c0.01,0,0.03-0.01,0.04,0c0.82,0.52,1.73,0.76,2.67,0.91
		c1.36,0.23,2.74,0.25,4.11,0.2c1.02-0.04,2.03-0.14,3.02-0.39c0.6-0.15,1.19-0.36,1.72-0.7c0.02-0.01,0.04-0.02,0.08-0.04v1.63
		l1.6-0.71c0.38-0.17,0.77-0.34,1.15-0.51V8.49c0-1.19-0.97-2.17-2.17-2.17H7.76c-1.19,0-2.17,0.97-2.17,2.17v14.42
		c0,1.19,0.97,2.17,2.17,2.17h12.98c-0.11-0.14-0.21-0.28-0.32-0.43C19.81,23.74,19.42,22.76,19.25,21.72z M8.5,10.53
		c0.04-0.21,0.15-0.38,0.3-0.53c0.32-0.31,0.71-0.5,1.13-0.65c0.77-0.28,1.57-0.42,2.39-0.51c0.4-0.04,0.81-0.06,1.21-0.09
		c0.03,0,0.07-0.01,0.1-0.02h1.35c0.24,0.02,0.48,0.04,0.73,0.05C16.7,8.85,17.68,9,18.62,9.32c0.36,0.13,0.71,0.28,1.02,0.52
		c0.23,0.18,0.41,0.39,0.47,0.69c0.02,0.11,0,0.18-0.09,0.26c-0.42,0.36-0.92,0.58-1.44,0.75c-0.78,0.25-1.59,0.37-2.4,0.44
		c-1.14,0.1-2.28,0.11-3.42,0.03c-1.1-0.08-2.2-0.22-3.23-0.65c-0.34-0.14-0.66-0.32-0.95-0.56C8.49,10.71,8.47,10.63,8.5,10.53z
		 M8.48,11.6v-0.16c0.43,0.28,0.86,0.47,1.32,0.62c0.72,0.23,1.45,0.35,2.2,0.43c1.02,0.11,2.03,0.13,3.05,0.1
		c1.24-0.03,2.48-0.15,3.67-0.51c0.48-0.15,0.95-0.34,1.38-0.63c0.01,0.04,0.01,0.07,0.01,0.09c0,0.79,0,1.59,0,2.38
		c0,0.06-0.05,0.14-0.09,0.18c-0.42,0.38-0.93,0.6-1.46,0.76c-0.79,0.25-1.61,0.37-2.44,0.44c-0.94,0.08-1.88,0.1-2.81,0.05
		c-1.19-0.05-2.36-0.17-3.5-0.57c-0.45-0.16-0.86-0.36-1.23-0.67c-0.07-0.06-0.11-0.13-0.11-0.23C8.49,13.13,8.48,12.36,8.48,11.6z"
		/>
	<path fill="#D29D3F" d="M28.6,17.64c0-0.07-0.02-0.1-0.09-0.13c-1.39-0.62-2.79-1.24-4.18-1.86c-0.05-0.02-0.13-0.02-0.18,0
		c-0.62,0.27-1.24,0.55-1.87,0.83c-0.77,0.34-1.54,0.68-2.32,1.03c-0.07,0.03-0.09,0.06-0.09,0.13c0,0.52,0,1.03,0,1.54
		c0,0.39,0,0.77,0,1.16c-0.01,1.3,0.35,2.48,1.08,3.55c0.18,0.26,0.36,0.5,0.57,0.72c0.7,0.77,1.57,1.33,2.63,1.62
		c0.05,0.02,0.12,0.02,0.18,0c0.46-0.12,0.91-0.3,1.31-0.55c1.88-1.19,2.86-2.92,2.95-5.13C28.63,19.58,28.59,18.61,28.6,17.64z
		 M23.26,23.31c-0.32-0.32-0.65-0.65-0.98-0.98l-0.92-0.92c0.21-0.21,0.44-0.43,0.68-0.66c0.08,0.08,0.16,0.17,0.25,0.25
		c0.32,0.33,0.64,0.66,0.97,0.99l3.2-3.2c0.24,0.23,0.46,0.45,0.67,0.66C25.83,20.75,24.54,22.03,23.26,23.31z"/>
</g>
</svg>
