<?xml version="1.0" encoding="utf-8"?>
<!-- Generator: Adobe Illustrator 25.0.1, SVG Export Plug-In . SVG Version: 6.00 Build 0)  -->
<svg version="1.1" id="Layer_1" xmlns="http://www.w3.org/2000/svg" xmlns:xlink="http://www.w3.org/1999/xlink" x="0px" y="0px"
	 viewBox="0 0 32 32" enable-background="new 0 0 32 32" xml:space="preserve">
<g>
	<path fill="#D29D3F" d="M9.58,18.27c0.02,0.53,0.44,0.92,0.98,0.92c0.53-0.01,0.93-0.4,0.94-0.92c0.01-0.64,0-1.28,0-1.92
		c0-0.25-0.07-0.5-0.27-0.62c-0.28-0.18-0.25-0.4-0.2-0.65c0.02-0.1,0.03-0.19,0.05-0.29c0.58-2.6,3-4.2,5.64-3.74
		c2.07,0.37,3.76,2.25,3.89,4.34c0,0.06-0.03,0.15-0.08,0.19c-0.29,0.21-0.43,0.48-0.43,0.83c0,0.46,0,0.93,0,1.39
		c0,0.22-0.01,0.43,0.02,0.64c0.02,0.13-0.01,0.18-0.11,0.25c-0.55,0.34-1.16,0.52-1.8,0.62c-0.17,0.03-0.32,0.03-0.46-0.12
		c-0.06-0.06-0.18-0.1-0.27-0.1c-0.28-0.01-0.56-0.02-0.84,0c-0.32,0.02-0.52,0.28-0.51,0.58c0.01,0.3,0.25,0.53,0.56,0.53
		c0.24,0.01,0.49,0.03,0.72-0.01c0.16-0.02,0.3-0.13,0.45-0.2c0.07-0.03,0.14-0.1,0.21-0.11c0.84-0.1,1.64-0.32,2.35-0.79
		c0.05-0.03,0.16-0.03,0.22,0c0.66,0.27,1.35-0.16,1.36-0.87c0.01-0.62,0-1.24,0-1.86c0-0.26-0.07-0.52-0.28-0.66
		c-0.25-0.17-0.28-0.39-0.3-0.64c0-0.04,0-0.08-0.01-0.12c-0.45-3.06-3.26-5.19-6.34-4.82c-2.68,0.32-4.78,2.54-4.97,5.24
		c0,0.07-0.06,0.16-0.11,0.2c-0.28,0.2-0.42,0.47-0.43,0.81c0,0.31,0,0.61,0,0.92c0,0,0,0,0,0C9.57,17.63,9.57,17.95,9.58,18.27z"/>
	<path fill="#D29D3F" d="M30.21,16.73c-4.55-4.56-9.12-9.12-13.68-13.68c-0.59-0.59-1.03-0.59-1.62,0
		c-4.57,4.57-9.13,9.13-13.7,13.7C1.14,16.83,1.06,16.91,0.99,17c-0.23,0.31-0.26,0.64-0.08,0.98c0.17,0.32,0.52,0.52,0.88,0.43
		c0.25-0.06,0.5-0.22,0.68-0.4c4.33-4.32,8.66-8.64,12.98-12.97c0.09-0.09,0.13-0.21,0.2-0.32c0.05,0.01,0.1,0.02,0.14,0.03
		c0.08,0.1,0.14,0.21,0.23,0.3c4.3,4.31,8.61,8.61,12.91,12.92c0.09,0.09,0.18,0.18,0.28,0.26c0.46,0.37,1.09,0.23,1.36-0.29
		c0.03-0.06,0.06-0.12,0.1-0.17c0-0.14,0-0.27,0-0.41C30.52,17.15,30.39,16.91,30.21,16.73z"/>
	<path fill="#D29D3F" d="M26.54,17.43c-0.05-0.42-0.38-0.73-0.79-0.77c-0.41-0.04-0.8,0.21-0.92,0.61
		c-0.04,0.15-0.05,0.31-0.05,0.46c0,2.83,0,5.66,0,8.49c0,0.11,0,0.23,0,0.35c-0.73,0-2.07-0.26-2.06-0.41
		c0.04-0.38,0.04-0.77-0.02-1.14c-0.1-0.61-0.51-1.04-0.98-1.41c-0.77-0.61-1.66-1-2.56-1.37c-0.31-0.12-0.62-0.25-0.92-0.39
		c-0.45-0.21-0.7-0.54-0.6-1.06c0-0.02,0-0.04-0.01-0.07c-0.33,0-0.64,0.01-0.96,0c-0.59-0.01-1.05-0.48-1.06-1.07
		c-0.01-0.58,0.46-1.07,1.06-1.09c0.24-0.01,0.49-0.02,0.72,0c0.21,0.03,0.42,0.11,0.63,0.17c0.07,0.02,0.15,0.05,0.22,0.04
		c0.18-0.03,0.36-0.06,0.53-0.12c0.07-0.02,0.15-0.08,0.18-0.15c0.53-1.15,0.76-2.34,0.52-3.6c-0.23-1.21-0.84-2.16-1.99-2.68
		c-0.71-0.32-1.46-0.38-2.22-0.29c-1.28,0.16-2.23,0.8-2.79,1.97c-0.44,0.92-0.47,1.9-0.33,2.89c0.17,1.17,0.68,2.19,1.4,3.13
		c0.13,0.18,0.27,0.35,0.38,0.55c0.23,0.44,0.11,0.91-0.31,1.18c-0.13,0.09-0.28,0.15-0.42,0.22c-0.75,0.37-1.52,0.72-2.26,1.12
		c-0.57,0.3-1.1,0.65-1.54,1.13c-0.53,0.59-0.7,1.28-0.48,2.04c0.04,0.16-1.42,0.42-2.22,0.42c0-0.15,0-0.26,0-0.38
		c0-2.8,0-5.6,0-8.4c0-0.12,0.01-0.23-0.01-0.35c-0.05-0.41-0.38-0.74-0.79-0.78c-0.41-0.04-0.81,0.21-0.93,0.6
		c-0.05,0.16-0.05,0.35-0.05,0.52c0,1.86,0,3.71,0,5.57c0,1.32,0,2.64,0,3.97c0,0.72,0.34,1.06,1.05,1.06c0.04,0,0.08,0,0.12,0
		c6.44,0,12.87,0,19.31,0c0.87,0,1.17-0.3,1.17-1.18c0-3.13,0-6.26,0-9.39C26.55,17.69,26.55,17.56,26.54,17.43z"/>
</g>
</svg>
