<?xml version="1.0" encoding="utf-8"?>
<!-- Generator: Adobe Illustrator 25.0.1, SVG Export Plug-In . SVG Version: 6.00 Build 0)  -->
<svg version="1.1" id="Layer_1" xmlns="http://www.w3.org/2000/svg" xmlns:xlink="http://www.w3.org/1999/xlink" x="0px" y="0px"
	 viewBox="0 0 32 32" enable-background="new 0 0 32 32" xml:space="preserve">
<g>
	<path fill="#D29D3F" d="M2.35,22.19c0.14-0.11,0.27-0.23,0.43-0.31c2.49-1.31,4.99-2.61,7.49-3.91c0.08-0.04,0.17-0.09,0.26-0.12
		c0.21-0.05,0.38,0.02,0.48,0.21c0.1,0.2,0.04,0.37-0.12,0.51c-0.06,0.05-0.13,0.08-0.2,0.12C9.83,19.12,8.99,19.56,8.15,20
		C8.08,20.04,8,20.08,7.9,20.14c0.87,0.47,1.74,0.88,2.55,1.38c0.52,0.32,0.95,0.34,1.44-0.02c0.3-0.21,0.65-0.36,0.98-0.53
		c0.26-0.13,0.48-0.08,0.61,0.13c0.12,0.22,0.04,0.45-0.22,0.6c-0.38,0.21-0.76,0.41-1.16,0.62c0.06,0.05,0.1,0.09,0.14,0.11
		c1.07,0.57,2.14,1.14,3.22,1.7c0.08,0.04,0.21,0.05,0.28,0.01c1.11-0.58,2.22-1.17,3.33-1.77c0.01-0.01,0.02-0.03,0.05-0.06
		c-0.4-0.21-0.79-0.42-1.18-0.63c-0.27-0.15-0.34-0.41-0.19-0.63c0.13-0.19,0.33-0.23,0.57-0.1c0.52,0.27,1.03,0.55,1.56,0.82
		c0.07,0.04,0.19,0.06,0.25,0.03c1.05-0.55,2.09-1.1,3.17-1.68c-0.44-0.23-0.84-0.44-1.24-0.65c-0.09-0.05-0.19-0.09-0.26-0.16
		c-0.15-0.14-0.18-0.32-0.08-0.49c0.11-0.18,0.28-0.26,0.48-0.19c0.1,0.03,0.19,0.09,0.28,0.13c1.98,1.03,3.95,2.06,5.93,3.1
		c0.15,0.08,0.28,0.21,0.43,0.31c0,0.1,0,0.21,0,0.31c-0.15,0.11-0.29,0.24-0.45,0.32c-3.64,1.88-7.28,3.76-10.92,5.64
		c-0.58,0.3-1.15,0.61-1.72,0.92c-0.1,0-0.21,0-0.31,0c-0.07-0.05-0.14-0.1-0.21-0.14c-4.14-2.14-8.28-4.27-12.41-6.41
		c-0.17-0.09-0.32-0.22-0.47-0.34C2.35,22.4,2.35,22.29,2.35,22.19z M14.69,24.71c-0.05-0.04-0.07-0.06-0.09-0.07
		c-1.1-0.59-2.2-1.17-3.31-1.75c-0.08-0.04-0.22-0.02-0.3,0.02c-0.95,0.49-1.89,1-2.83,1.5c-0.07,0.04-0.14,0.08-0.24,0.14
		c1.18,0.61,2.32,1.2,3.47,1.78c0.07,0.03,0.18,0.03,0.26-0.01c0.31-0.15,0.61-0.32,0.91-0.48C13.27,25.47,13.96,25.1,14.69,24.71z
		 M23.25,24.55c-0.04-0.04-0.06-0.06-0.08-0.07c-1-0.53-2-1.07-3.01-1.59c-0.08-0.04-0.22-0.02-0.3,0.02
		c-0.85,0.44-1.69,0.89-2.53,1.34c-0.27,0.14-0.54,0.29-0.84,0.45c1.06,0.56,2.07,1.1,3.09,1.64c0.06,0.03,0.15,0.02,0.21,0
		C20.94,25.75,22.08,25.15,23.25,24.55z M3.69,22.33c0.06,0.04,0.07,0.06,0.1,0.07c1.03,0.53,2.06,1.07,3.1,1.59
		c0.08,0.04,0.23,0.02,0.33-0.03c0.94-0.49,1.87-0.99,2.81-1.49c0.07-0.04,0.14-0.08,0.24-0.14c-0.13-0.08-0.23-0.14-0.34-0.19
		c-0.78-0.42-1.58-0.81-2.34-1.26c-0.41-0.24-0.73-0.25-1.14-0.01C5.54,21.39,4.62,21.84,3.69,22.33z M20.94,22.33
		c0.05,0.04,0.07,0.06,0.09,0.07c1,0.53,2.01,1.07,3.01,1.59c0.08,0.04,0.22,0.02,0.3-0.02c0.81-0.41,1.61-0.82,2.41-1.24
		c0.24-0.12,0.48-0.25,0.76-0.39c-0.11-0.06-0.18-0.1-0.25-0.14c-0.82-0.43-1.66-0.83-2.47-1.3c-0.43-0.25-0.76-0.27-1.19-0.01
		C22.75,21.41,21.85,21.85,20.94,22.33z M12.42,26.86c1.05,0.54,2.05,1.06,3.06,1.57c0.06,0.03,0.17,0.04,0.23,0.01
		c1.01-0.51,2.02-1.04,3.05-1.57c-0.06-0.04-0.09-0.08-0.14-0.1c-0.96-0.51-1.91-1.02-2.88-1.52c-0.08-0.04-0.23-0.03-0.32,0.02
		c-0.77,0.4-1.54,0.81-2.31,1.22C12.89,26.6,12.67,26.72,12.42,26.86z"/>
	<path fill="#D29D3F" d="M16.22,2.89c0.38,0.07,0.76,0.12,1.14,0.2c3.27,0.73,5.8,3.57,6.05,6.91c0.26,3.36-1.13,5.89-4.03,7.6
		c-0.12,0.07-0.24,0.17-0.31,0.29c-1.01,1.51-2.02,3.02-3.03,4.54c-0.3,0.45-0.59,0.45-0.89-0.01c-1.01-1.51-2.02-3.03-3.03-4.54
		c-0.07-0.11-0.18-0.21-0.29-0.28c-2.79-1.51-4.37-4.47-4.06-7.61C7.92,8.52,8.44,7.2,9.32,6.03c0.19-0.25,0.41-0.31,0.62-0.16
		c0.22,0.15,0.23,0.39,0.04,0.66C9.97,6.53,9.96,6.55,9.95,6.56c-0.68,0.92-1.11,1.95-1.3,3.09c-0.48,2.93,0.98,5.87,3.62,7.26
		c0.19,0.1,0.37,0.26,0.49,0.44c0.9,1.32,1.77,2.65,2.66,3.98c0.05,0.08,0.11,0.15,0.18,0.26c0.06-0.09,0.12-0.16,0.17-0.24
		c0.89-1.34,1.78-2.68,2.69-4.02c0.11-0.16,0.27-0.32,0.45-0.41c2.71-1.43,4.11-4.32,3.66-7.19c-0.48-3.1-2.81-5.44-5.82-5.92
		c-2-0.32-3.81,0.16-5.43,1.37c-0.04,0.03-0.08,0.06-0.12,0.09c-0.22,0.15-0.45,0.12-0.59-0.08c-0.13-0.18-0.11-0.43,0.1-0.57
		c0.47-0.32,0.94-0.65,1.44-0.91c0.84-0.44,1.74-0.69,2.69-0.78c0.06-0.01,0.12-0.03,0.17-0.04C15.4,2.89,15.81,2.89,16.22,2.89z"/>
	<path fill="#D29D3F" d="M15.6,17.83c0.23,0,0.41,0.18,0.41,0.41c0,0.22-0.19,0.41-0.41,0.41c-0.22,0-0.41-0.19-0.41-0.42
		C15.18,18.01,15.37,17.83,15.6,17.83z"/>
	<g>
		<path fill="#D29D3F" d="M20.3,10.41c-0.02-0.02-0.04-0.04-0.06-0.05c-0.1-0.09-0.21-0.14-0.34-0.14c-0.2,0-0.4,0-0.6,0
			c-0.04,0-0.06,0.01-0.06,0.06c0,0.2,0,0.4,0,0.59c0,0.05,0.02,0.06,0.07,0.06c0.11,0,0.23,0,0.34,0.01
			c0.37,0.02,0.61,0.24,0.65,0.62c0.01,0.09,0.01,0.18,0.01,0.27c-0.02,0-0.02,0-0.03,0c-0.13-0.14-0.3-0.18-0.48-0.17
			c-0.2,0.01-0.4,0-0.6,0c-0.07,0-0.09,0.02-0.1,0.09c-0.15,0.63-0.46,1.16-0.95,1.58c-0.4,0.35-0.88,0.55-1.38,0.68
			c-0.45,0.12-0.92,0.15-1.39,0.15c-0.82,0-1.65,0-2.47,0c-0.03,0-0.05,0-0.09,0c0.01-0.02,0.01-0.03,0.02-0.03
			c0.21-0.25,0.29-0.54,0.3-0.85c0.01-0.51,0.01-1.02,0.02-1.53c0-0.07-0.02-0.09-0.09-0.08c-0.09,0-0.19-0.01-0.28,0
			c-0.37,0.02-0.61-0.24-0.68-0.54c-0.02-0.11-0.02-0.22-0.03-0.35c0.04,0.02,0.05,0.03,0.07,0.04c0.12,0.11,0.27,0.15,0.43,0.15
			c0.17,0,0.34,0,0.52,0c0.05,0,0.07-0.02,0.07-0.07c0-0.2,0-0.39,0-0.59c0-0.05-0.02-0.07-0.07-0.06c-0.09,0-0.18,0-0.27,0
			c-0.48,0.02-0.7-0.36-0.72-0.67c0-0.07,0-0.14,0-0.23c0.03,0.02,0.05,0.04,0.07,0.05c0.11,0.09,0.23,0.14,0.38,0.14
			c0.18,0,0.37,0,0.55-0.01c0.04,0,0.07,0,0.07-0.05c-0.01-0.51,0-1.03-0.02-1.54c-0.01-0.3-0.11-0.58-0.28-0.83
			c-0.01-0.01-0.01-0.03-0.02-0.04c0,0,0-0.01,0-0.02c0.03,0,0.05,0,0.08,0c0.86,0,1.72,0,2.58,0c0.62,0,1.22,0.09,1.8,0.34
			c0.93,0.39,1.53,1.08,1.79,2.06c0.02,0.08,0.05,0.11,0.14,0.11c0.14-0.01,0.28,0.01,0.43,0c0.31-0.01,0.53,0.22,0.61,0.45
			C20.3,10.09,20.32,10.25,20.3,10.41z M17.9,9.5c-0.03-0.13-0.05-0.25-0.09-0.37c-0.11-0.4-0.27-0.77-0.56-1.07
			c-0.43-0.45-0.96-0.65-1.56-0.67c-0.46-0.02-0.92-0.01-1.37-0.02c-0.07,0-0.09,0.02-0.09,0.09c0,0.66,0,1.31,0,1.97
			c0,0.07,0.02,0.09,0.09,0.09c1.16,0,2.32,0,3.48,0C17.82,9.5,17.85,9.5,17.9,9.5z M17.9,11.65c-0.04,0-0.07,0-0.1,0
			c-0.86,0-1.73,0-2.59,0c-0.3,0-0.6,0-0.9,0c-0.06,0-0.08,0.01-0.08,0.08c0,0.66,0,1.33,0,1.99c0,0.04,0.01,0.07,0.06,0.07
			c0.48-0.01,0.96-0.01,1.43-0.04c0.39-0.02,0.75-0.13,1.09-0.33c0.5-0.3,0.8-0.75,0.97-1.3C17.82,11.97,17.86,11.82,17.9,11.65z
			 M17.97,10.22c-0.04,0-0.06,0-0.09,0c-0.14,0-0.27,0-0.41,0c-1.05,0-2.1,0-3.15,0c-0.07,0-0.1,0.02-0.09,0.09
			c0.01,0.17,0,0.34,0,0.52c0,0.1,0,0.1,0.1,0.1c1.17,0,2.35,0,3.52,0c0.02,0,0.04,0,0.05,0c0.05,0.01,0.07-0.02,0.06-0.07
			c0-0.13,0-0.25,0-0.38C17.97,10.4,17.97,10.31,17.97,10.22z"/>
	</g>
</g>
</svg>
