<?xml version="1.0" encoding="utf-8"?>
<!-- Generator: Adobe Illustrator 25.0.1, SVG Export Plug-In . SVG Version: 6.00 Build 0)  -->
<svg version="1.1" id="Layer_1" xmlns="http://www.w3.org/2000/svg" xmlns:xlink="http://www.w3.org/1999/xlink" x="0px" y="0px"
	 viewBox="0 0 32 32" enable-background="new 0 0 32 32" xml:space="preserve">
<path fill="#D29D3F" d="M26.12,23.62c-2.06-3.58-4.09-7.17-6.13-10.76c-0.79-1.39-1.57-2.8-2.39-4.18
	c-1.14-1.91-3.82-1.89-4.95,0.01c-0.2,0.33-0.39,0.68-0.58,1.01c-2.64,4.63-5.27,9.25-7.91,13.88c-0.26,0.46-0.43,0.94-0.44,1.48
	c-0.04,1.6,1.26,2.93,2.87,2.93c2.85,0.01,5.7,0,8.55,0c2.81,0,5.63,0,8.44-0.01c0.33,0,0.67-0.05,0.98-0.14
	C26.14,27.36,27.14,25.41,26.12,23.62z M13.81,15.4c0-0.94,0-1.88,0-2.82c0-0.81,0.55-1.4,1.3-1.4c0.74,0,1.3,0.59,1.3,1.39
	c0,1.88,0,3.76,0,5.65c0,0.81-0.55,1.4-1.3,1.4c-0.74,0-1.3-0.59-1.3-1.39C13.81,17.29,13.81,16.34,13.81,15.4z M15.25,23.58
	c-0.76-0.01-1.29-0.58-1.29-1.4c0-0.82,0.53-1.39,1.29-1.4c0.76,0,1.31,0.57,1.31,1.38C16.56,23,16.02,23.58,15.25,23.58z"/>
</svg>
