<?xml version="1.0" encoding="utf-8"?>
<!-- Generator: Adobe Illustrator 25.0.1, SVG Export Plug-In . SVG Version: 6.00 Build 0)  -->
<svg version="1.1" id="Layer_1" xmlns="http://www.w3.org/2000/svg" xmlns:xlink="http://www.w3.org/1999/xlink" x="0px" y="0px"
	 viewBox="0 0 32 32" enable-background="new 0 0 32 32" xml:space="preserve">
<g>
	<g>
		<path fill="#D29D3F" d="M11.69,12.76c-0.29,0-0.52,0.12-0.66,0.37c-0.27,0.49,0.09,1.04,0.67,1.04c1.7,0,3.41,0,5.11,0
			c0.06,0,0.13,0,0.19,0c1.65,0,3.3,0,4.94,0c0.32,0,0.57-0.11,0.71-0.41c0.24-0.49-0.12-1.01-0.7-1.01c-2.6,0-5.21,0-7.81,0
			C13.32,12.76,12.5,12.76,11.69,12.76z"/>
	</g>
	<g>
		<path fill="#D29D3F" d="M25.69,8.98c-1.45-1.44-2.9-2.9-4.35-4.34c-0.17-0.17-0.37-0.3-0.55-0.45H9.48
			C9.18,4.3,8.86,4.38,8.59,4.55C7.94,4.97,7.64,5.6,7.64,6.38v9.24c-0.74,0.1-1.44,0.3-2.1,0.62c-2.45,1.2-3.89,3.92-3.49,6.6
			c0.41,2.77,2.54,4.94,5.27,5.38c0.17,0.03,0.34,0.06,0.51,0.09h16.35c0.18-0.06,0.36-0.09,0.53-0.17c0.86-0.39,1.3-1.07,1.3-2
			c0.01-2.24,0.01-4.48,0.01-6.71c0-3.22-0.01-6.44,0-9.66C26.02,9.45,25.92,9.2,25.69,8.98z M8.3,27.63
			c-3.11,0-5.65-2.54-5.65-5.66c0-3.11,2.54-5.65,5.65-5.65c3.12,0,5.66,2.54,5.66,5.65C13.96,25.09,11.42,27.63,8.3,27.63z
			 M24.6,26.04c0,0.59-0.26,0.86-0.84,0.86h-11.4c1.49-1.44,1.88-2.15,2.32-4.25h7.18c0.1,0,0.2,0.01,0.3-0.02
			c0.36-0.08,0.6-0.41,0.55-0.76c-0.04-0.37-0.34-0.63-0.73-0.63h-7.31c-0.13-1.01-0.45-1.94-1.04-2.83h8.22
			c0.1,0,0.21,0.01,0.3-0.01c0.35-0.08,0.59-0.4,0.57-0.74c-0.03-0.36-0.32-0.64-0.69-0.66h-9.47c-0.12,0-0.27-0.05-0.38-0.13
			c-0.93-0.69-1.96-1.1-3.13-1.25V6.43c0-0.56,0.27-0.83,0.84-0.83h10v3.88c0,0.56,0.27,0.83,0.84,0.83h3.87V26.04z M8.3,17.26
			c-2.59,0-4.71,2.12-4.71,4.71c0,2.6,2.12,4.72,4.71,4.72c2.6,0,4.72-2.12,4.72-4.72C13.02,19.38,10.9,17.26,8.3,17.26z
			 M10.79,20.99c-0.09,0.11-0.2,0.21-0.3,0.31c-0.97,0.97-1.95,1.95-2.92,2.93c-0.44,0.43-0.8,0.42-1.24-0.01
			c-0.41-0.41-0.82-0.82-1.23-1.23c-0.34-0.34-0.36-0.77-0.06-1.07c0.3-0.29,0.72-0.27,1.06,0.07c0.28,0.28,0.55,0.56,0.84,0.86
			l2.75-2.75c0.19-0.2,0.42-0.31,0.7-0.25C10.91,19.96,11.13,20.57,10.79,20.99z"/>
	</g>
</g>
</svg>
