<?xml version="1.0" encoding="utf-8"?>
<!-- Generator: Adobe Illustrator 25.0.1, SVG Export Plug-In . SVG Version: 6.00 Build 0)  -->
<svg version="1.1" id="Layer_1" xmlns="http://www.w3.org/2000/svg" xmlns:xlink="http://www.w3.org/1999/xlink" x="0px" y="0px"
	 viewBox="0 0 32 32" enable-background="new 0 0 32 32" xml:space="preserve">
<path fill="#D29D3F" d="M28.04,18.2c-0.05,0.25-0.09,0.5-0.16,0.75c-0.57,2.12-2.53,3.56-4.69,3.44c-2.23-0.12-4.03-1.75-4.36-3.95
	c-0.37-2.46,1.35-4.83,3.81-5.23c2.5-0.41,4.87,1.25,5.32,3.71c0.02,0.14,0.05,0.27,0.08,0.41C28.04,17.62,28.04,17.91,28.04,18.2z
	 M25.09,15.79c-0.71,0.71-1.42,1.43-2.17,2.17c-0.27-0.29-0.53-0.58-0.79-0.85c-0.33,0.33-0.64,0.64-0.91,0.91
	c0.58,0.58,1.17,1.17,1.73,1.74c1.01-1.01,2.03-2.03,3.05-3.05C25.72,16.42,25.42,16.12,25.09,15.79z"/>
<path fill="#D29D3F" d="M5.57,27.68c0-7.04,0-14.08,0-21.14c0.44,0,0.86,0,1.31,0c0,6.59,0,13.19,0,19.81c5.08,0,10.13,0,15.19,0
	c0,0.46,0,0.89,0,1.32C16.57,27.68,11.07,27.68,5.57,27.68z"/>
<path fill="#D29D3F" d="M8.23,25.02c0-6.6,0-13.19,0-19.79c3.29,0,6.58,0,9.9,0c0,1.74,0,3.49,0,5.26c1.77,0,3.52,0,5.29,0
	c0,0.42,0,0.82,0,1.21c0,0.15-0.12,0.12-0.21,0.12c-0.9,0.02-1.74,0.26-2.54,0.67c-2.21,1.14-3.49,3.6-3.15,6.07
	c0.34,2.49,2.25,4.55,4.68,5.03c0.39,0.08,0.79,0.11,1.21,0.16c0,0.42,0,0.84,0,1.28C18.35,25.02,13.3,25.02,8.23,25.02z
	 M16.8,11.84c-1.98,0-3.95,0-5.92,0c0,0.44,0,0.87,0,1.29c1.98,0,3.94,0,5.92,0C16.8,12.7,16.8,12.28,16.8,11.84z M10.87,10.48
	c1.76,0,3.51,0,5.26,0c0-0.44,0-0.86,0-1.29c-1.76,0-3.5,0-5.26,0C10.87,9.62,10.87,10.05,10.87,10.48z M16.14,14.47
	c-1.76,0-3.51,0-5.27,0c0,0.44,0,0.86,0,1.3c1.76,0,3.51,0,5.27,0C16.14,15.34,16.14,14.92,16.14,14.47z M16.14,17.12
	c-1.76,0-3.51,0-5.26,0c0,0.44,0,0.87,0,1.29c1.76,0,3.5,0,5.26,0C16.14,17.98,16.14,17.56,16.14,17.12z M10.87,21.05
	c1.76,0,3.51,0,5.26,0c0-0.44,0-0.86,0-1.29c-1.76,0-3.5,0-5.26,0C10.87,20.19,10.87,20.62,10.87,21.05z"/>
<path fill="#D29D3F" d="M22.91,9.16c-1.11,0-2.27,0-3.44,0c0-1.17,0-2.34,0-3.44C20.6,6.85,21.76,8.01,22.91,9.16z"/>
</svg>
