<?xml version="1.0" encoding="utf-8"?>
<!-- Generator: Adobe Illustrator 25.0.1, SVG Export Plug-In . SVG Version: 6.00 Build 0)  -->
<svg version="1.1" id="Layer_1" xmlns="http://www.w3.org/2000/svg" xmlns:xlink="http://www.w3.org/1999/xlink" x="0px" y="0px"
	 viewBox="0 0 32 32" enable-background="new 0 0 32 32" xml:space="preserve">
<g>
	<path fill="#D29D3F" d="M21.28,18.24c0.36,0.23,0.68,0.42,0.98,0.63c0.82,0.6,1.69,0.91,2.71,0.66c0.15-0.04,0.24-0.08,0.26-0.26
		c0.03-0.32,0.24-0.51,0.54-0.58c0.49-0.11,0.99-0.21,1.49-0.3c0.44-0.08,0.78,0.15,0.86,0.59c0.39,1.92,0.77,3.85,1.15,5.77
		c0.1,0.52-0.11,0.83-0.64,0.94c-0.45,0.1-0.9,0.18-1.34,0.27c-0.37,0.07-0.66-0.04-0.86-0.39c-0.25,0.24-0.48,0.41-0.46,0.82
		c0.03,0.64-0.43,1.08-1.18,1.21c-0.06,0.46-0.26,0.85-0.7,1.07c-0.44,0.22-0.87,0.19-1.28-0.06c-0.8,1.01-1.32,1.03-2.43,0.07
		c-0.03,0.05-0.07,0.09-0.1,0.13c-0.46,0.7-1.36,0.81-1.96,0.23c-0.48-0.46-0.95-0.94-1.41-1.41c-0.12-0.12-0.24-0.17-0.41-0.17
		c-3.72,0-7.44,0-11.16,0c-0.88,0-1.37-0.48-1.37-1.35c0-5.7,0-11.41,0-17.11c0-0.44,0.14-0.78,0.45-1.09
		C5.62,6.77,6.8,5.59,7.97,4.41C8.27,4.1,8.62,3.95,9.06,3.95c3.62,0.01,7.24,0,10.86,0c0.89,0,1.37,0.48,1.37,1.38
		c0,4.22,0,8.44,0,12.66C21.28,18.1,21.28,18.21,21.28,18.24z M12.06,25.15c-1.06,0.01-1.37-0.24-1.61-1.28
		c-0.05-0.2-0.09-0.41-0.15-0.6c-0.12-0.41-0.34-0.52-0.74-0.37c-0.14,0.05-0.27,0.15-0.39,0.25c-0.17,0.14-0.33,0.31-0.49,0.46
		c-0.61,0.55-1.34,0.75-2.14,0.74c-0.23,0-0.38-0.16-0.39-0.37c-0.01-0.22,0.12-0.38,0.35-0.42c0.07-0.01,0.15-0.01,0.22-0.01
		c0.62-0.01,1.15-0.23,1.59-0.67c0.17-0.17,0.34-0.34,0.53-0.49c0.94-0.7,1.96-0.35,2.26,0.77c0.08,0.29,0.14,0.58,0.22,0.87
		c0.06,0.21,0.18,0.35,0.43,0.34c0.3-0.02,0.44-0.13,0.5-0.41c0.13-0.66,0.26-1.32,0.39-1.98c0.09-0.45,0.18-0.91,0.27-1.39
		c-0.13,0-0.23,0-0.33,0c-1.96,0-3.93,0-5.89,0c-0.36,0-0.54-0.14-0.55-0.4c0-0.26,0.18-0.4,0.54-0.4c0.07,0,0.15,0,0.22,0
		c1.97,0,3.95,0,5.92,0c0.18,0,0.28-0.03,0.29-0.23c0.02-0.19,0.07-0.38,0.11-0.56c0.11-0.46,0.43-0.67,0.89-0.58
		c0.48,0.09,0.97,0.17,1.44,0.3c0.17,0.04,0.31,0.2,0.47,0.3c0.09,0.06,0.18,0.14,0.27,0.15c0.94,0.01,1.88,0.01,2.82,0
		c0.1,0,0.22-0.05,0.31-0.11c0.28-0.19,0.54-0.42,0.83-0.59c0.16-0.09,0.23-0.16,0.23-0.35c-0.01-4.26,0-8.51-0.01-12.77
		c0-0.45-0.13-0.58-0.58-0.58c-3.55,0-7.09,0-10.64,0c-0.09,0-0.18,0-0.27,0c0,1.01,0,1.99,0,2.96c0,0.78-0.46,1.24-1.24,1.24
		c-0.89,0-1.78,0-2.67,0c-0.09,0-0.18,0-0.28,0C4.79,9.06,4.78,9.14,4.78,9.21c0,5.65,0,11.29,0,16.94c0,0.41,0.14,0.54,0.54,0.54
		c3.45,0,6.91,0,10.36,0c0.07,0,0.14-0.01,0.18-0.01c-0.33-0.34-0.67-0.67-1-1.01c-0.22,0.32-0.53,0.38-0.91,0.29
		c-0.37-0.09-0.75-0.16-1.13-0.22C12.46,25.67,12.16,25.54,12.06,25.15z M16.06,19.97c-0.02,0.06-0.04,0.11-0.05,0.16
		c-0.29,1.44-0.57,2.89-0.87,4.33c-0.04,0.19,0.01,0.3,0.14,0.43c0.99,0.98,1.98,1.98,2.97,2.96c0.21,0.21,0.42,0.43,0.64,0.63
		c0.25,0.23,0.6,0.18,0.74-0.1c0.12-0.22,0.06-0.42-0.11-0.59c-0.32-0.32-0.65-0.64-0.97-0.97c-0.22-0.23-0.15-0.57,0.13-0.67
		c0.2-0.07,0.35,0.03,0.49,0.17c0.66,0.67,1.33,1.33,1.99,2c0.31,0.31,0.58,0.35,0.8,0.13c0.21-0.22,0.17-0.48-0.13-0.78
		c-0.31-0.31-0.62-0.62-0.94-0.94c-0.33-0.33-0.66-0.66-0.99-0.99c-0.13-0.13-0.18-0.31-0.07-0.45c0.08-0.11,0.24-0.21,0.38-0.22
		c0.1-0.01,0.24,0.1,0.33,0.19c0.84,0.83,1.67,1.67,2.51,2.5c0.07,0.07,0.14,0.15,0.22,0.2c0.3,0.19,0.72-0.03,0.7-0.38
		c-0.01-0.15-0.11-0.32-0.22-0.43c-0.78-0.8-1.57-1.58-2.36-2.37c-0.05-0.05-0.11-0.1-0.15-0.16c-0.13-0.18-0.12-0.36,0.03-0.52
		c0.15-0.16,0.34-0.16,0.52-0.04c0.07,0.05,0.12,0.11,0.18,0.17c0.8,0.8,1.6,1.6,2.4,2.4c0.22,0.21,0.5,0.22,0.69,0.04
		c0.19-0.19,0.17-0.44-0.05-0.67c-1.13-1.14-2.25-2.29-3.39-3.43c-0.22-0.22-0.48-0.41-0.73-0.6c-0.12-0.09-0.27-0.14-0.43-0.21
		c-0.03,0.26-0.05,0.48-0.07,0.69c-0.13,1.21-0.69,1.9-1.78,2.2c-0.36,0.1-0.54,0-0.62-0.36c-0.19-0.85-0.36-1.71-0.56-2.56
		c-0.15-0.6,0.02-1.06,0.49-1.43c0.12-0.09,0.23-0.2,0.4-0.33C17.52,19.97,16.79,19.97,16.06,19.97z M25.54,25.38
		c0.2-0.21,0.4-0.41,0.58-0.62c0.06-0.08,0.11-0.21,0.09-0.3c-0.15-0.81-0.31-1.62-0.47-2.42c-0.12-0.58-0.24-1.17-0.36-1.76
		c-0.09,0.02-0.15,0.03-0.22,0.05c-0.91,0.22-1.79,0.11-2.61-0.34c-0.36-0.19-0.68-0.44-1.02-0.67c-0.39-0.27-0.77-0.31-1.11-0.04
		c-0.71,0.57-1.4,1.15-2.09,1.74c-0.09,0.08-0.17,0.25-0.15,0.37c0.15,0.8,0.33,1.59,0.51,2.4c0.44-0.16,0.7-0.47,0.79-0.89
		c0.09-0.4,0.12-0.8,0.18-1.21c0.07-0.54,0.38-0.78,0.91-0.69c0.22,0.04,0.46,0.13,0.64,0.25c0.33,0.21,0.65,0.44,0.92,0.71
		c0.89,0.88,1.76,1.77,2.63,2.66C25.02,24.86,25.26,25.1,25.54,25.38z M28.49,24.92c-0.38-1.92-0.76-3.82-1.14-5.72
		c-0.46,0.09-0.88,0.18-1.32,0.26c0.38,1.91,0.76,3.81,1.14,5.72C27.62,25.09,28.04,25.01,28.49,24.92z M14.19,25.18
		c0.38-1.92,0.76-3.81,1.14-5.72c-0.46-0.09-0.88-0.18-1.32-0.26c-0.38,1.91-0.76,3.81-1.14,5.72
		C13.31,25.01,13.73,25.09,14.19,25.18z M5.44,8.16c0.77,0,1.54,0,2.31,0c0.32,0,0.44-0.11,0.44-0.43c0-0.57,0-1.15,0-1.72
		c0-0.2,0-0.41,0-0.6C7.27,6.32,6.36,7.24,5.44,8.16z"/>
	<path fill="#D29D3F" d="M14.36,16.08c-2.85,0-5.2-2.33-5.2-5.19c-0.01-2.86,2.31-5.19,5.18-5.21c2.87-0.01,5.21,2.32,5.21,5.2
		C19.55,13.74,17.22,16.07,14.36,16.08z M14.34,6.48c-2.43,0.01-4.39,1.98-4.39,4.41c0,2.42,2,4.4,4.41,4.39
		c2.43-0.01,4.39-1.98,4.38-4.41C18.74,8.44,16.77,6.47,14.34,6.48z"/>
	<path fill="#D29D3F" d="M11.81,17.94c-1.71,0-3.41,0-5.12,0c-0.11,0-0.24-0.01-0.34-0.05c-0.17-0.07-0.24-0.23-0.21-0.41
		c0.03-0.19,0.15-0.29,0.33-0.33c0.08-0.02,0.17-0.01,0.25-0.01c3.39,0,6.79,0,10.18,0c0.04,0,0.08,0,0.12,0
		c0.28,0.01,0.45,0.16,0.46,0.39c0.01,0.24-0.18,0.41-0.46,0.41c-1.01,0-2.03,0-3.04,0C13.26,17.94,12.53,17.94,11.81,17.94z"/>
	<path fill="#D29D3F" d="M7.33,15.3c-0.26,0-0.52,0-0.77,0c-0.25-0.01-0.4-0.15-0.42-0.37c-0.01-0.23,0.14-0.41,0.4-0.42
		c0.54-0.01,1.08-0.01,1.62,0c0.24,0.01,0.4,0.19,0.39,0.4c0,0.23-0.17,0.39-0.43,0.39C7.86,15.31,7.59,15.3,7.33,15.3z"/>
	<path fill="#D29D3F" d="M7.34,12.66c-0.25,0-0.5,0-0.75,0c-0.28-0.01-0.45-0.15-0.45-0.39c0-0.24,0.16-0.4,0.44-0.4
		c0.52-0.01,1.03-0.01,1.55,0c0.27,0.01,0.44,0.19,0.43,0.42c-0.01,0.22-0.18,0.37-0.44,0.37C7.85,12.67,7.59,12.66,7.34,12.66z"/>
	<path fill="#D29D3F" d="M14.35,14.63c-2.06,0-3.75-1.69-3.75-3.75c0-2.07,1.68-3.74,3.75-3.74c2.07,0,3.74,1.68,3.74,3.75
		C18.1,12.94,16.42,14.63,14.35,14.63z M17.3,10.9c0.01-1.64-1.3-2.96-2.94-2.97c-1.61-0.01-2.95,1.31-2.96,2.93
		c-0.01,1.62,1.32,2.97,2.94,2.97C15.96,13.83,17.29,12.51,17.3,10.9z"/>
	<g>
		<path fill="#D29D3F" d="M16.57,10.7c-0.01-0.01-0.02-0.02-0.03-0.02c-0.05-0.04-0.1-0.07-0.17-0.07c-0.1,0-0.19,0-0.29,0
			c-0.02,0-0.03,0.01-0.03,0.03c0,0.1,0,0.19,0,0.29c0,0.02,0.01,0.03,0.03,0.03c0.05,0,0.11,0,0.16,0c0.18,0.01,0.29,0.12,0.31,0.3
			c0,0.04,0,0.09,0.01,0.13c-0.01,0-0.01,0-0.01,0c-0.06-0.07-0.14-0.09-0.23-0.08c-0.1,0-0.19,0-0.29,0
			c-0.03,0-0.04,0.01-0.05,0.04c-0.07,0.3-0.22,0.56-0.46,0.76c-0.19,0.17-0.42,0.27-0.67,0.33c-0.22,0.06-0.44,0.07-0.67,0.07
			c-0.4,0-0.79,0-1.19,0c-0.01,0-0.03,0-0.04,0c0-0.01,0.01-0.01,0.01-0.02c0.1-0.12,0.14-0.26,0.14-0.41
			c0.01-0.25,0.01-0.49,0.01-0.74c0-0.03-0.01-0.04-0.04-0.04c-0.05,0-0.09,0-0.14,0c-0.18,0.01-0.3-0.12-0.33-0.26
			c-0.01-0.05-0.01-0.11-0.02-0.17c0.02,0.01,0.03,0.01,0.03,0.02c0.06,0.05,0.13,0.07,0.21,0.07c0.08,0,0.17,0,0.25,0
			c0.02,0,0.03-0.01,0.03-0.03c0-0.09,0-0.19,0-0.28c0-0.03-0.01-0.03-0.03-0.03c-0.04,0-0.09,0-0.13,0
			c-0.23,0.01-0.34-0.17-0.35-0.32c0-0.03,0-0.07,0-0.11c0.01,0.01,0.02,0.02,0.03,0.02c0.05,0.04,0.11,0.07,0.18,0.07
			c0.09,0,0.18,0,0.27,0c0.02,0,0.03,0,0.03-0.03c0-0.25,0-0.5-0.01-0.74c0-0.15-0.05-0.28-0.13-0.4c0-0.01-0.01-0.01-0.01-0.02
			c0,0,0,0,0-0.01c0.01,0,0.03,0,0.04,0c0.42,0,0.83,0,1.25,0c0.3,0,0.59,0.05,0.87,0.16c0.45,0.19,0.74,0.52,0.87,0.99
			c0.01,0.04,0.03,0.05,0.07,0.05c0.07,0,0.14,0,0.2,0c0.15,0,0.26,0.11,0.29,0.22C16.57,10.54,16.58,10.62,16.57,10.7z
			 M15.41,10.26c-0.01-0.06-0.03-0.12-0.04-0.18c-0.05-0.19-0.13-0.37-0.27-0.52c-0.21-0.21-0.46-0.31-0.75-0.32
			c-0.22-0.01-0.44-0.01-0.66-0.01c-0.03,0-0.04,0.01-0.04,0.04c0,0.32,0,0.63,0,0.95c0,0.03,0.01,0.04,0.04,0.04
			c0.56,0,1.12,0,1.68,0C15.38,10.26,15.39,10.26,15.41,10.26z M15.41,11.29c-0.02,0-0.03,0-0.05,0c-0.42,0-0.83,0-1.25,0
			c-0.15,0-0.29,0-0.44,0c-0.03,0-0.04,0.01-0.04,0.04c0,0.32,0,0.64,0,0.96c0,0.02,0,0.03,0.03,0.03c0.23-0.01,0.46-0.01,0.69-0.02
			c0.19-0.01,0.36-0.06,0.52-0.16c0.24-0.14,0.38-0.36,0.47-0.63C15.38,11.45,15.39,11.37,15.41,11.29z M15.45,10.6
			c-0.02,0-0.03,0-0.04,0c-0.07,0-0.13,0-0.2,0c-0.51,0-1.01,0-1.52,0c-0.04,0-0.05,0.01-0.04,0.05c0,0.08,0,0.17,0,0.25
			c0,0.05,0,0.05,0.05,0.05c0.57,0,1.13,0,1.7,0c0.01,0,0.02,0,0.03,0c0.02,0,0.03-0.01,0.03-0.03c0-0.06,0-0.12,0-0.18
			C15.45,10.69,15.45,10.65,15.45,10.6z"/>
	</g>
</g>
</svg>
