<?xml version="1.0" encoding="utf-8"?>
<!-- Generator: Adobe Illustrator 25.0.1, SVG Export Plug-In . SVG Version: 6.00 Build 0)  -->
<svg version="1.1" id="Layer_1" xmlns="http://www.w3.org/2000/svg" xmlns:xlink="http://www.w3.org/1999/xlink" x="0px" y="0px"
	 viewBox="0 0 32 32" enable-background="new 0 0 32 32" xml:space="preserve">
<g>
	<path fill="#D29D3F" d="M22.95,14.84c-2.61-1.92-5.23-3.83-7.85-5.75c-0.29-0.21-0.42-0.21-0.71,0c-2.6,1.9-5.2,3.8-7.79,5.71
		c-0.12,0.09-0.21,0.22-0.32,0.32c0,0.08,0,0.15,0,0.23c0.2,0.38,0.45,0.43,0.8,0.17c2.51-1.84,5.02-3.68,7.53-5.52
		c0.1-0.07,0.16-0.08,0.27,0c2.51,1.84,5.02,3.68,7.53,5.52c0.35,0.26,0.6,0.2,0.8-0.18c0-0.08,0-0.15,0-0.23
		C23.12,15.03,23.05,14.91,22.95,14.84z"/>
	<path fill="#D29D3F" d="M21.33,16.05c-0.04-0.19-0.2-0.33-0.39-0.34c-0.29-0.02-0.47,0.18-0.47,0.51c0,2.24,0,4.49,0,6.73
		c0,0.06,0,0.13,0,0.19c-0.04,0.01-0.06,0.01-0.07,0.01c-1.11,0-2.21,0-3.32,0c-0.13,0-0.13-0.07-0.13-0.16c0-0.6,0-1.19,0-1.79
		c0-0.69,0.02-1.38-0.02-2.07c-0.08-1.34-1.41-2.29-2.72-1.95c-1.01,0.26-1.66,1.12-1.66,2.21c0,1.18,0,2.37,0,3.55
		c0,0.15-0.04,0.2-0.19,0.19c-1.05-0.01-2.1,0-3.16,0c-0.05,0-0.11,0-0.17-0.01c0-0.08,0-0.14,0-0.21c0-2.22,0-4.43,0-6.65
		c0-0.06,0-0.12,0-0.18C9,15.88,8.82,15.72,8.6,15.71c-0.23-0.01-0.42,0.14-0.45,0.37c-0.01,0.07-0.01,0.14-0.01,0.21
		c0,2.38,0,4.76,0,7.14c0,0.05,0,0.1,0,0.15c0.02,0.27,0.19,0.44,0.46,0.44c1.45,0,2.9,0,4.35,0c0.11,0,0.26-0.05,0.33-0.14
		c0.08-0.09,0.13-0.25,0.13-0.37c0.01-1.39,0-2.78,0.01-4.17c0-0.77,0.62-1.37,1.38-1.34c0.71,0.03,1.26,0.61,1.26,1.35
		c0,1.37,0,2.74,0,4.12c0,0.4,0.15,0.55,0.55,0.55c1.39,0,2.78,0,4.17,0c0.42,0,0.57-0.15,0.57-0.57c0-2.4,0-4.79,0-7.19
		C21.34,16.2,21.34,16.12,21.33,16.05z"/>
	<path fill="#D29D3F" d="M27.53,16.72c0-0.07,0-0.14-0.01-0.22l-0.02-0.23l-0.02-0.23l-0.01-0.12c0-0.04-0.01-0.08-0.02-0.11
		l-0.06-0.46c-0.01-0.08-0.03-0.15-0.04-0.23L27.3,14.9l-0.04-0.23l-0.05-0.22l-0.06-0.22c-0.02-0.07-0.03-0.15-0.06-0.22
		l-0.13-0.44c-0.02-0.07-0.05-0.15-0.07-0.22l-0.08-0.22l-0.08-0.22c-0.03-0.07-0.06-0.14-0.09-0.21l-0.09-0.21
		c-0.03-0.07-0.06-0.14-0.09-0.21l-0.2-0.42c-0.27-0.55-0.58-1.08-0.93-1.59c-0.35-0.5-0.74-0.98-1.15-1.43
		c-0.42-0.45-0.87-0.86-1.35-1.25c-0.48-0.38-0.98-0.72-1.51-1.03l-0.4-0.22c-0.07-0.04-0.13-0.07-0.2-0.1l-0.2-0.1l-0.2-0.1
		l-0.21-0.09L19.9,5.83c-0.07-0.03-0.14-0.06-0.21-0.09l-0.43-0.16c-0.07-0.03-0.14-0.05-0.22-0.07l-0.22-0.07
		c-0.07-0.02-0.14-0.05-0.22-0.07l-0.22-0.06l-0.22-0.06c-0.07-0.02-0.15-0.04-0.22-0.05l-0.45-0.1c-0.07-0.02-0.15-0.03-0.22-0.04
		l-0.22-0.04l-0.22-0.04l-0.23-0.03c-0.15-0.02-0.3-0.04-0.45-0.05L15.7,4.88l-0.11-0.01c-0.04,0-0.08,0-0.11,0l-0.23,0
		c-0.3-0.01-0.6,0.01-0.91,0.02c-0.15,0.01-0.3,0.03-0.45,0.04c-0.08,0.01-0.15,0.01-0.23,0.02l-0.22,0.03l-0.22,0.03
		c-0.07,0.01-0.15,0.02-0.22,0.04l-0.44,0.09c-0.07,0.01-0.15,0.03-0.22,0.05l-0.22,0.05l-0.22,0.05c-0.07,0.02-0.14,0.04-0.22,0.06
		l-0.22,0.06c-0.07,0.02-0.15,0.04-0.22,0.07l-0.43,0.15c-0.07,0.02-0.14,0.05-0.21,0.08l-0.21,0.09l-0.21,0.09l-0.2,0.1l-0.2,0.1
		c-0.07,0.03-0.14,0.06-0.2,0.1l-0.4,0.21C8.65,6.69,8.14,7.02,7.67,7.38C7.19,7.75,6.74,8.15,6.32,8.57C5.91,9,5.52,9.46,5.17,9.95
		c-0.35,0.49-0.66,1-0.94,1.52l-0.2,0.4c-0.03,0.07-0.06,0.14-0.09,0.2l-0.09,0.2l-0.09,0.21l-0.08,0.21L3.61,12.9
		c-0.03,0.07-0.05,0.14-0.07,0.21L3.4,13.54c-0.02,0.07-0.04,0.14-0.06,0.21l-0.06,0.22c-0.02,0.07-0.04,0.14-0.06,0.22L3.17,14.4
		l-0.05,0.22c-0.02,0.07-0.03,0.14-0.04,0.22l-0.07,0.44C3,15.35,2.99,15.42,2.98,15.5l-0.02,0.22l-0.02,0.22
		c-0.01,0.07-0.01,0.15-0.01,0.22c-0.01,0.15-0.02,0.3-0.03,0.44c0,0.3-0.01,0.59,0.01,0.89l0.01,0.22c0,0.04,0,0.07,0,0.11
		l0.01,0.11l0.04,0.44c0.02,0.15,0.04,0.29,0.06,0.44l0.03,0.22l0.04,0.22l0.04,0.22c0.01,0.07,0.03,0.15,0.05,0.22l0.11,0.43
		c0.02,0.07,0.04,0.14,0.06,0.21l0.06,0.21l0.06,0.21c0.02,0.07,0.05,0.14,0.07,0.21l0.07,0.21c0.03,0.07,0.05,0.14,0.08,0.21
		l0.17,0.41c0.03,0.07,0.06,0.13,0.09,0.2l0.09,0.2l0.09,0.2l0.1,0.2l0.1,0.19c0.03,0.06,0.07,0.13,0.11,0.19l0.23,0.38
		c0.31,0.5,0.66,0.97,1.03,1.42c0.38,0.45,0.79,0.86,1.23,1.25c0.44,0.38,0.91,0.74,1.4,1.06c0.49,0.32,1,0.59,1.53,0.84l0.4,0.17
		c0.07,0.03,0.14,0.05,0.2,0.08l0.2,0.08c0.07,0.03,0.14,0.05,0.2,0.08l0.21,0.07l0.21,0.07c0.07,0.02,0.14,0.05,0.21,0.06
		l0.42,0.11c0.07,0.02,0.14,0.03,0.21,0.05l0.21,0.05l0.21,0.05l0.21,0.04L13,28.85c0.07,0.01,0.14,0.03,0.22,0.03l0.43,0.05
		c0.04,0,0.07,0.01,0.11,0.01l0.11,0.01l0.22,0.01l0.22,0.01c0.07,0.01,0.14,0,0.22,0l0.43,0l-0.43-0.02c-0.07,0-0.14,0-0.22-0.01
		l-0.22-0.02l-0.22-0.02l-0.11-0.01c-0.04,0-0.07-0.01-0.11-0.01l-0.43-0.06c-0.07-0.01-0.14-0.02-0.21-0.04l-0.21-0.04l-0.21-0.04
		l-0.21-0.05l-0.21-0.05c-0.07-0.02-0.14-0.03-0.21-0.05l-0.41-0.12c-0.07-0.02-0.14-0.04-0.2-0.07l-0.2-0.07l-0.2-0.07
		c-0.07-0.03-0.13-0.05-0.2-0.08l-0.2-0.08c-0.07-0.03-0.13-0.05-0.2-0.08l-0.39-0.18c-0.51-0.26-1.01-0.55-1.48-0.87
		c-0.47-0.33-0.92-0.69-1.34-1.08c-0.42-0.39-0.8-0.81-1.16-1.26c-0.35-0.45-0.68-0.92-0.96-1.41l-0.21-0.37
		c-0.04-0.06-0.07-0.13-0.1-0.19l-0.09-0.19l-0.09-0.19l-0.09-0.2l-0.09-0.2c-0.03-0.07-0.06-0.13-0.08-0.2l-0.15-0.4
		c-0.03-0.07-0.05-0.13-0.07-0.2l-0.07-0.2c-0.02-0.07-0.04-0.13-0.06-0.2l-0.06-0.21l-0.06-0.21C3.76,20.14,3.74,20.07,3.73,20
		l-0.09-0.42c-0.02-0.07-0.03-0.14-0.04-0.21l-0.03-0.21l-0.03-0.21l-0.02-0.21c-0.01-0.14-0.03-0.28-0.04-0.42L3.44,17.9L3.43,17.8
		c0-0.04,0-0.07,0-0.11l0-0.21c-0.01-0.28,0.01-0.57,0.02-0.85c0.01-0.14,0.02-0.28,0.04-0.42C3.49,16.14,3.5,16.07,3.51,16
		l0.03-0.21l0.03-0.21c0.01-0.07,0.02-0.14,0.03-0.21l0.08-0.42c0.01-0.07,0.03-0.14,0.05-0.21l0.05-0.21l0.05-0.21
		c0.02-0.07,0.04-0.13,0.06-0.2l0.06-0.2c0.02-0.07,0.04-0.14,0.06-0.2l0.14-0.4c0.02-0.07,0.05-0.13,0.08-0.2l0.08-0.19l0.08-0.19
		l0.09-0.19l0.09-0.19c0.03-0.06,0.06-0.13,0.09-0.19l0.2-0.37c0.28-0.49,0.58-0.96,0.92-1.41C6.13,9.96,6.5,9.54,6.9,9.15
		C7.3,8.76,7.73,8.4,8.18,8.07C8.63,7.75,9.11,7.46,9.6,7.2l0.37-0.18c0.06-0.03,0.13-0.06,0.19-0.09l0.19-0.08l0.19-0.08l0.19-0.07
		l0.19-0.07c0.06-0.02,0.13-0.05,0.2-0.07l0.4-0.13c0.07-0.02,0.13-0.04,0.2-0.06l0.2-0.05l0.2-0.05l0.2-0.04l0.2-0.04
		c0.07-0.01,0.14-0.03,0.2-0.04l0.41-0.07c0.07-0.01,0.14-0.02,0.21-0.03l0.21-0.02l0.21-0.02c0.07-0.01,0.14-0.01,0.21-0.01
		c0.14-0.01,0.28-0.02,0.41-0.02c0.28,0,0.55-0.01,0.83,0.01l0.21,0.01c0.03,0,0.07,0,0.1,0l0.1,0.01l0.41,0.04
		c0.14,0.01,0.27,0.04,0.41,0.06l0.2,0.03l0.2,0.04l0.2,0.04c0.07,0.01,0.14,0.02,0.2,0.04l0.4,0.1c0.07,0.01,0.13,0.04,0.2,0.06
		l0.2,0.06l0.2,0.06c0.07,0.02,0.13,0.05,0.19,0.07l0.19,0.07c0.06,0.02,0.13,0.04,0.19,0.07l0.38,0.16
		c0.06,0.02,0.13,0.05,0.19,0.08l0.19,0.09l0.19,0.09l0.18,0.1l0.18,0.1c0.06,0.03,0.12,0.06,0.18,0.1l0.35,0.21
		c0.46,0.29,0.91,0.61,1.33,0.97c0.41,0.36,0.8,0.74,1.17,1.15c0.36,0.41,0.69,0.85,0.98,1.3c0.3,0.46,0.55,0.94,0.78,1.43
		l0.16,0.37c0.03,0.06,0.05,0.13,0.07,0.19l0.07,0.19c0.02,0.06,0.05,0.13,0.07,0.19l0.06,0.19l0.06,0.19
		c0.02,0.06,0.04,0.13,0.06,0.19l0.1,0.39c0.02,0.06,0.03,0.13,0.05,0.2l0.04,0.2l0.04,0.2l0.03,0.2l0.03,0.2
		c0.01,0.07,0.02,0.13,0.03,0.2l0.04,0.4c0,0.03,0.01,0.07,0.01,0.1l0.01,0.1l0.01,0.2l0.01,0.2c0,0.04,0,0.09,0,0.13h-1.44
		l2.2,3.81l2.2-3.81H27.53z"/>
</g>
</svg>
