<?xml version="1.0" encoding="utf-8"?>
<!-- Generator: Adobe Illustrator 25.0.1, SVG Export Plug-In . SVG Version: 6.00 Build 0)  -->
<svg version="1.1" id="Layer_1" xmlns="http://www.w3.org/2000/svg" xmlns:xlink="http://www.w3.org/1999/xlink" x="0px" y="0px"
	 viewBox="0 0 32 32" enable-background="new 0 0 32 32" xml:space="preserve">
<g>
	<path fill="#D29D3F" d="M25.47,6.57c-0.91-0.9-1.81-1.8-2.7-2.7c-0.2-0.2-0.41-0.28-0.69-0.28c-4.97,0.01-9.93,0-14.9,0
		c-0.6,0-0.7,0.1-0.7,0.69c0,3.88,0,7.76,0,11.64c0,3.91,0,7.81,0,11.72c0,0.5,0.13,0.62,0.63,0.62c1.16,0,2.32,0,3.49,0
		c0.17,0,0.27,0.05,0.36,0.19c2.45,3.76,7.84,3.76,10.28,0.01c0.1-0.16,0.21-0.2,0.38-0.2c1.16,0.01,2.32,0,3.49,0
		c0.47,0,0.61-0.13,0.61-0.59c0-6.84,0-13.67,0-20.51C25.72,6.93,25.65,6.75,25.47,6.57z M22.76,5.2c0.45,0.45,0.89,0.9,1.34,1.34
		c-0.43,0-0.88,0-1.34,0C22.76,6.09,22.76,5.65,22.76,5.2z M16.1,30.38c-2.88,0-5.24-2.37-5.23-5.24c0.01-2.88,2.35-5.21,5.23-5.21
		c2.88,0,5.22,2.34,5.23,5.21C21.34,28.02,18.98,30.38,16.1,30.38z M24.81,27.36c-1,0-1.97,0-2.94,0c0.89-3.22,0.1-5.86-2.85-7.55
		c-2.23-1.28-4.55-1.08-6.59,0.49c-2.34,1.81-2.91,4.24-2.07,7.05c-0.97,0-1.95,0-2.95,0c0-7.6,0-15.22,0-22.85c4.8,0,9.6,0,14.45,0
		c0,0.09,0,0.19,0,0.28c0,0.7,0,1.4,0,2.09c0,0.42,0.15,0.57,0.57,0.57c0.69,0,1.38,0,2.06,0c0.1,0,0.2,0,0.32,0
		C24.81,14.1,24.81,20.72,24.81,27.36z"/>
	<path fill="#D29D3F" d="M22.94,9.3c-0.56,0-1.12-0.01-1.67,0c-0.36,0-0.53,0.17-0.53,0.53c0,2.64,0,5.28,0,7.92
		c0,0.37,0.16,0.52,0.53,0.53c0.54,0,1.08,0,1.62,0c0.46,0,0.6-0.13,0.6-0.6c0-1.3,0-2.6,0-3.9c0-1.31,0-2.62,0-3.93
		C23.48,9.46,23.33,9.3,22.94,9.3z M22.57,17.37c-0.32,0-0.61,0-0.93,0c0-2.39,0-4.77,0-7.17c0.31,0,0.61,0,0.93,0
		C22.57,12.6,22.57,14.97,22.57,17.37z"/>
	<path fill="#D29D3F" d="M18.93,11.14c-0.53,0-1.06,0-1.59,0c-0.47,0-0.61,0.15-0.61,0.62c0,0.99,0,1.97,0,2.96
		c0,0.98,0,1.95,0,2.93c0,0.51,0.13,0.64,0.65,0.64c0.51,0,1.02,0,1.53,0c0.41,0,0.57-0.14,0.57-0.54c0-2.02,0-4.04,0-6.05
		C19.48,11.29,19.32,11.14,18.93,11.14z M18.56,17.38c-0.31,0-0.61,0-0.92,0c0-1.78,0-3.55,0-5.33c0.31,0,0.6,0,0.92,0
		C18.56,13.81,18.56,15.58,18.56,17.38z"/>
	<path fill="#D29D3F" d="M14.94,12.97c-0.56,0-1.11,0-1.67,0c-0.38,0-0.54,0.16-0.55,0.54c0,1.41,0,2.82,0,4.24
		c0,0.37,0.16,0.52,0.53,0.53c0.54,0,1.08,0,1.62,0c0.47,0,0.61-0.14,0.61-0.62c0-0.68,0-1.36,0-2.03c0-0.71,0-1.41,0-2.12
		C15.47,13.14,15.3,12.98,14.94,12.97z M14.56,17.36c-0.3,0-0.6,0-0.92,0c0-1.15,0-2.31,0-3.49c0.31,0,0.61,0,0.92,0
		C14.56,15.04,14.56,16.19,14.56,17.36z"/>
	<path fill="#D29D3F" d="M10.96,14.81c-0.58,0-1.15,0-1.73,0c-0.34,0-0.5,0.16-0.5,0.49c-0.01,0.41,0,0.82,0,1.23
		c0,0.42-0.01,0.84,0,1.25c0.01,0.34,0.16,0.49,0.5,0.49c0.58,0,1.15,0,1.73,0c0.34,0,0.51-0.16,0.51-0.49
		c0.01-0.83,0.01-1.65,0-2.48C11.46,14.98,11.28,14.82,10.96,14.81z M10.56,17.37c-0.31,0-0.61,0-0.92,0c0-0.55,0-1.09,0-1.65
		c0.32,0,0.61,0,0.92,0C10.56,16.27,10.56,16.81,10.56,17.37z"/>
	<path fill="#D29D3F" d="M15.87,10.01c-0.97,0-1.93,0-2.9,0c-0.33,0-0.53,0.17-0.53,0.44c0,0.27,0.2,0.45,0.53,0.45
		c0.48,0,0.97,0,1.45,0c0.48,0,0.97,0,1.45,0c0.33,0,0.52-0.17,0.52-0.45C16.4,10.17,16.21,10.01,15.87,10.01z"/>
	<path fill="#D29D3F" d="M9.18,10.9c0.46,0.01,0.93,0.01,1.39,0c0.28-0.01,0.46-0.21,0.45-0.46c-0.01-0.24-0.19-0.41-0.46-0.42
		c-0.22-0.01-0.44,0-0.67,0c-0.22,0-0.45,0-0.67,0c-0.01,0-0.02,0-0.03,0c-0.29,0.01-0.47,0.17-0.48,0.43
		C8.72,10.7,8.89,10.89,9.18,10.9z"/>
	<path fill="#D29D3F" d="M16.11,20.38c-2.64-0.01-4.78,2.12-4.79,4.75c-0.02,2.62,2.13,4.79,4.75,4.8c2.64,0.01,4.8-2.13,4.81-4.77
		C20.89,22.53,18.75,20.39,16.11,20.38z M16.1,29.04c-2.14,0-3.89-1.74-3.89-3.88c0-2.14,1.74-3.88,3.89-3.88
		c2.15,0,3.89,1.74,3.89,3.88C19.99,27.29,18.24,29.04,16.1,29.04z"/>
	<path fill="#D29D3F" d="M18.74,24.3c-0.16-0.6-0.5-1.08-1.04-1.4c-0.5-0.3-1.06-0.42-1.64-0.43c-0.69-0.01-1.39,0-2.08,0
		c-0.02,0-0.04,0-0.06,0c0.01,0.02,0.02,0.04,0.03,0.06c0.14,0.21,0.21,0.45,0.21,0.71c0.01,0.31,0.01,0.63,0.01,0.94
		c0,0.07,0,0.14,0,0.22c-0.17,0-0.34,0-0.5,0c-0.1,0-0.19-0.04-0.26-0.1c-0.02-0.01-0.04-0.03-0.06-0.05c0,0.05,0,0.08,0,0.12
		c0,0.36,0.23,0.59,0.59,0.58c0.07,0,0.15,0,0.22,0c0,0.02,0.01,0.04,0.01,0.05c0,0.16,0,0.32,0,0.5c-0.13,0-0.26,0-0.39,0
		c-0.15,0.01-0.3-0.02-0.41-0.13c0,0-0.01,0-0.03,0c0.01,0.08,0,0.16,0.02,0.24c0.05,0.27,0.26,0.46,0.53,0.44
		c0.09-0.01,0.19,0,0.28,0c0,0.03,0.01,0.05,0.01,0.06c0,0.39,0,0.79-0.01,1.18c-0.01,0.24-0.07,0.47-0.23,0.66c0,0,0,0.01,0,0.02
		c0.69,0,1.38,0,2.07,0c0.38,0,0.75-0.05,1.11-0.16c0.78-0.24,1.32-0.72,1.59-1.5c0.03-0.09,0.05-0.18,0.08-0.27
		c0.15,0,0.29,0,0.43,0c0.17,0,0.34-0.01,0.48,0.16c0-0.06,0-0.11,0-0.15c-0.01-0.37-0.21-0.56-0.57-0.56c-0.08,0-0.16,0-0.24,0
		c0-0.19,0-0.37,0-0.55c0.14,0,0.28,0,0.42,0c0.15-0.01,0.28,0.03,0.38,0.14c0,0,0.01,0,0.01,0c0-0.07,0.01-0.15,0-0.22
		c-0.03-0.23-0.22-0.47-0.52-0.46c-0.1,0-0.2-0.01-0.29,0C18.79,24.4,18.76,24.38,18.74,24.3z M15.01,22.76
		c0.01,0,0.01-0.01,0.02-0.01c0.41,0.01,0.82-0.01,1.23,0.03c0.72,0.07,1.21,0.46,1.44,1.14c0.04,0.12,0.07,0.23,0.1,0.35
		c0.01,0.03,0.01,0.07,0.02,0.11c-0.94,0-1.87,0-2.82,0C15.01,23.84,15.01,23.3,15.01,22.76z M16.25,27.66
		c-0.4,0.05-0.81,0.04-1.21,0.04c-0.01,0-0.02,0-0.03-0.01c0-0.55,0-1.09,0-1.64c0.94,0,1.87,0,2.81,0
		C17.67,26.98,17.14,27.55,16.25,27.66z M17.88,25.49c-0.95,0-1.91,0-2.87,0c0-0.18,0-0.36,0-0.54c0.96,0,1.91,0,2.87,0
		C17.88,25.13,17.88,25.31,17.88,25.49z"/>
</g>
</svg>
