<?xml version="1.0" encoding="utf-8"?>
<!-- Generator: Adobe Illustrator 25.0.1, SVG Export Plug-In . SVG Version: 6.00 Build 0)  -->
<svg version="1.1" id="Layer_1" xmlns="http://www.w3.org/2000/svg" xmlns:xlink="http://www.w3.org/1999/xlink" x="0px" y="0px"
	 viewBox="0 0 32 32" enable-background="new 0 0 32 32" xml:space="preserve">
<path fill="#D29D3F" d="M15.28,28.59c-0.42-0.11-0.63-0.41-0.7-0.82c-0.05-0.24-0.12-0.42-0.4-0.52c-0.39-0.13-0.6-0.46-0.63-0.88
	c-0.02-0.28-0.02-0.56-0.01-0.84c0.02-0.39,0.28-0.65,0.66-0.65c1.38-0.01,2.75-0.01,4.13,0c0.39,0,0.66,0.27,0.67,0.67
	c0.01,0.27,0.01,0.53-0.01,0.8c-0.02,0.45-0.32,0.84-0.76,0.97c-0.15,0.04-0.2,0.12-0.23,0.25c-0.02,0.08-0.05,0.17-0.06,0.25
	c-0.08,0.39-0.29,0.66-0.69,0.78C16.59,28.59,15.93,28.59,15.28,28.59z"/>
<path fill="#D29D3F" d="M21.14,12.73c-1.62-2.28-4.4-3.14-7.02-2.16c-2.68,0.99-4.28,3.99-3.64,6.77c0.26,1.12,0.79,2.08,1.57,2.91
	c0.75,0.8,1.2,1.74,1.4,2.82c0.11,0.61,0.46,0.9,1.09,0.9c0.57,0,1.14,0,1.71,0c0.58,0,1.16,0,1.74,0c0.62,0,0.98-0.3,1.09-0.91
	c0.03-0.13,0.05-0.26,0.08-0.39c0.24-1.06,0.83-1.92,1.55-2.71C22.5,18,22.67,14.89,21.14,12.73z M13.34,15.9
	c-0.01,0.09-0.01,0.17-0.02,0.26c-0.05,0.38-0.33,0.63-0.7,0.6c-0.36-0.02-0.62-0.31-0.62-0.69v-0.14c0.08-2.25,1.99-4.1,4.23-4.1
	c0.38,0,0.68,0.26,0.7,0.61c0.03,0.38-0.21,0.69-0.61,0.71c-0.56,0.04-1.09,0.14-1.56,0.44C13.9,14.13,13.42,14.9,13.34,15.9z
	 M19.1,17.45c-0.25,0.25-0.5,0.5-0.75,0.75c-0.75,0.75-1.5,1.5-2.25,2.26c-0.08,0.08-0.18,0.12-0.29,0.08
	c-0.04-0.01-0.08-0.04-0.11-0.07c-0.48-0.48-0.97-0.97-1.45-1.45c-0.17-0.17-0.17-0.41,0-0.58c0.05-0.06,0.11-0.11,0.16-0.16
	c0.17-0.16,0.4-0.16,0.57,0c0.29,0.29,0.58,0.57,0.86,0.86c0.02,0.02,0.03,0.04,0.05,0.07c0.03-0.03,0.04-0.05,0.06-0.07
	c0.8-0.8,1.61-1.61,2.41-2.41c0.14-0.14,0.31-0.17,0.47-0.09c0.04,0.02,0.08,0.05,0.11,0.08c0.06,0.05,0.11,0.11,0.16,0.16
	C19.27,17.04,19.27,17.27,19.1,17.45z"/>
<path fill="#D29D3F" d="M6.56,16.75c-0.37,0-0.73,0-1.1,0c-0.43-0.01-0.73-0.28-0.73-0.66c-0.01-0.38,0.29-0.67,0.72-0.67
	c0.74-0.01,1.48-0.01,2.23,0c0.44,0,0.74,0.29,0.73,0.68c-0.01,0.39-0.3,0.65-0.74,0.65C7.29,16.76,6.93,16.75,6.56,16.75z"/>
<path fill="#D29D3F" d="M25.96,16.75c-0.37,0-0.73,0-1.1,0c-0.43,0-0.73-0.27-0.73-0.66c-0.01-0.38,0.28-0.67,0.71-0.68
	c0.75-0.01,1.5-0.01,2.25,0c0.43,0.01,0.72,0.3,0.71,0.68c-0.01,0.38-0.31,0.65-0.74,0.66C26.7,16.76,26.33,16.75,25.96,16.75z"/>
<path fill="#D29D3F" d="M10.14,21.44c0.38,0.02,0.58,0.15,0.7,0.41c0.12,0.27,0.06,0.52-0.14,0.73c-0.33,0.34-0.67,0.68-1.01,1.01
	c-0.21,0.21-0.42,0.42-0.63,0.63c-0.29,0.27-0.69,0.28-0.95,0.02c-0.27-0.26-0.28-0.66,0-0.95c0.55-0.56,1.1-1.11,1.66-1.66
	C9.88,21.54,10.06,21.49,10.14,21.44z"/>
<path fill="#D29D3F" d="M23.88,7.73c0.34,0.01,0.54,0.13,0.66,0.37c0.13,0.25,0.12,0.5-0.07,0.7c-0.57,0.6-1.16,1.19-1.76,1.76
	c-0.26,0.25-0.67,0.2-0.91-0.05c-0.24-0.26-0.25-0.64,0.01-0.91c0.55-0.57,1.11-1.12,1.67-1.68c0.02-0.02,0.05-0.05,0.07-0.06
	C23.69,7.8,23.82,7.76,23.88,7.73z"/>
<path fill="#D29D3F" d="M23.92,24.48c-0.15-0.08-0.32-0.13-0.44-0.24c-0.56-0.54-1.1-1.09-1.64-1.64c-0.28-0.29-0.28-0.68-0.02-0.95
	c0.27-0.27,0.67-0.28,0.96,0.01c0.55,0.54,1.09,1.08,1.62,1.63c0.21,0.21,0.27,0.47,0.15,0.75C24.45,24.28,24.2,24.44,23.92,24.48z"
	/>
<path fill="#D29D3F" d="M10.2,10.75c-0.15-0.08-0.33-0.14-0.45-0.26C9.2,9.97,8.66,9.43,8.13,8.89C7.84,8.59,7.83,8.2,8.1,7.93
	c0.26-0.27,0.67-0.27,0.96,0.01c0.55,0.54,1.09,1.08,1.63,1.63c0.21,0.21,0.28,0.47,0.15,0.75C10.72,10.58,10.51,10.71,10.2,10.75z"
	/>
<path fill="#D29D3F" d="M16.93,6.38c0,0.38,0,0.77,0,1.15c-0.01,0.41-0.29,0.69-0.67,0.69c-0.37,0-0.65-0.28-0.65-0.68
	c-0.01-0.77-0.01-1.53,0-2.3c0-0.41,0.29-0.69,0.67-0.69c0.37,0,0.65,0.29,0.65,0.68C16.93,5.61,16.93,6,16.93,6.38z"/>
</svg>
