<?xml version="1.0" encoding="utf-8"?>
<!-- Generator: Adobe Illustrator 25.0.1, SVG Export Plug-In . SVG Version: 6.00 Build 0)  -->
<svg version="1.1" id="Layer_1" xmlns="http://www.w3.org/2000/svg" xmlns:xlink="http://www.w3.org/1999/xlink" x="0px" y="0px"
	 viewBox="0 0 32 32" enable-background="new 0 0 32 32" xml:space="preserve">
<g>
	<path fill="#D29D3F" d="M17.27,13.13c0.71-0.09,1.37-0.17,2.07-0.25c0-0.11,0-0.24,0-0.37c0-2.96,0-5.92,0-8.87
		c0-0.59,0.11-0.7,0.69-0.7c0.79,0,1.58,0,2.37,0c0.48,0,0.61,0.14,0.61,0.62c0,3.39,0,6.79,0,10.18c0,0.21,0.06,0.35,0.24,0.47
		c3.37,2.35,4.03,7.07,1.45,10.26c-0.06,0.08-0.12,0.16-0.18,0.22c0.48,0.48,0.95,0.95,1.44,1.44c0.03-0.02,0.07-0.06,0.12-0.09
		c0.42-0.32,0.89-0.3,1.26,0.08c0.89,0.88,1.77,1.76,2.64,2.64c0.4,0.4,0.39,0.92,0.01,1.33c-0.24,0.25-0.48,0.49-0.73,0.73
		c-0.4,0.38-0.92,0.39-1.31,0c-0.9-0.89-1.8-1.78-2.69-2.69c-0.39-0.39-0.36-0.86,0.04-1.34c-0.48-0.48-0.96-0.95-1.43-1.43
		c-0.38,0.26-0.75,0.55-1.16,0.78c-4.37,2.52-9.93-0.25-10.55-5.25c-0.23-1.83,0.21-3.51,1.27-5.03c0.1-0.14,0.17-0.35,0.17-0.52
		c0.01-1.72,0.01-3.44,0.01-5.17c0-0.52,0.12-0.64,0.64-0.64c0.81,0,1.62,0,2.43,0c0.47,0,0.59,0.12,0.59,0.6c0,0.89,0,1.78,0,2.67
		C17.27,12.92,17.27,13.03,17.27,13.13z M25.42,20c0-3.44-2.77-6.22-6.22-6.22c-3.45,0-6.25,2.8-6.24,6.23
		c0.01,3.43,2.8,6.23,6.23,6.23C22.63,26.25,25.42,23.46,25.42,20z M20.21,3.79c0,3.1,0,6.14,0,9.16c0.65,0.19,1.29,0.37,1.94,0.56
		c0-0.09,0.01-0.17,0.01-0.26c0-3.05,0-6.09,0-9.14c0-0.05,0.02-0.11-0.01-0.15C22.11,3.9,22.05,3.8,22,3.8
		C21.41,3.79,20.83,3.79,20.21,3.79z M14.48,14.63c0.58-0.35,1.15-0.71,1.72-1.03c0.17-0.09,0.22-0.19,0.22-0.37
		c-0.01-0.85,0-1.7,0-2.55c0-0.09-0.01-0.17-0.02-0.26c-0.65,0-1.28,0-1.92,0C14.48,11.84,14.48,13.24,14.48,14.63z M25.9,27.46
		c0.92,0.93,1.83,1.84,2.71,2.73c0.25-0.25,0.51-0.52,0.75-0.75c-0.9-0.9-1.81-1.81-2.71-2.7C26.41,26.97,26.14,27.23,25.9,27.46z"
		/>
	<path fill="#D29D3F" d="M7.89,15.76c0-2.66,0-5.33,0-7.99c0-0.51,0.11-0.62,0.63-0.62c0.82,0,1.64,0,2.46,0
		c0.44,0,0.57,0.13,0.57,0.56c0,5.37,0,10.74,0,16.11c0,0.44-0.13,0.57-0.55,0.57c-0.85,0-1.7,0-2.55,0c-0.42,0-0.55-0.14-0.55-0.57
		C7.89,21.13,7.89,18.45,7.89,15.76z M10.67,23.52c0-5.19,0-10.35,0-15.51c-0.65,0-1.27,0-1.91,0c0,5.18,0,10.34,0,15.51
		C9.4,23.52,10.03,23.52,10.67,23.52z"/>
	<path fill="#D29D3F" d="M2.16,19.67c0-1.37,0-2.73,0-4.1c0-0.49,0.12-0.61,0.61-0.61c0.83,0,1.66,0,2.49,0
		c0.4,0,0.56,0.15,0.56,0.54c0,2.78,0,5.57,0,8.35c0,0.38-0.15,0.53-0.54,0.53c-0.86,0-1.72,0-2.58,0c-0.41,0-0.54-0.13-0.54-0.55
		C2.16,22.45,2.16,21.06,2.16,19.67z M3.04,15.83c0,2.57,0,5.13,0,7.68c0.65,0,1.28,0,1.92,0c0-2.57,0-5.12,0-7.68
		C4.31,15.83,3.69,15.83,3.04,15.83z"/>
	<path fill="#D29D3F" d="M19.19,25.59c-3.09,0-5.58-2.5-5.58-5.58c0-3.08,2.51-5.59,5.58-5.59c3.07,0,5.59,2.52,5.59,5.59
		C24.78,23.09,22.28,25.59,19.19,25.59z M19.19,24.74c2.61,0,4.74-2.12,4.74-4.73c0-2.6-2.14-4.74-4.74-4.74
		c-2.6,0.01-4.72,2.12-4.72,4.72C14.46,22.61,16.57,24.74,19.19,24.74z"/>
	<g>
		<path fill="#D29D3F" d="M23.02,20.01c-0.02-0.02-0.04-0.03-0.05-0.04c-0.08-0.08-0.18-0.12-0.29-0.12c-0.17,0-0.34,0-0.51,0
			c-0.04,0-0.05,0.01-0.05,0.05c0,0.17,0,0.34,0,0.51c0,0.04,0.02,0.05,0.06,0.05c0.1,0,0.19,0,0.29,0
			c0.32,0.02,0.52,0.21,0.56,0.53c0.01,0.08,0.01,0.15,0.01,0.23c-0.01,0-0.02,0-0.02,0c-0.11-0.12-0.25-0.15-0.41-0.15
			c-0.17,0-0.34,0-0.51,0c-0.06,0-0.08,0.02-0.09,0.07c-0.12,0.54-0.39,0.99-0.81,1.35c-0.34,0.3-0.75,0.47-1.18,0.58
			c-0.39,0.1-0.78,0.13-1.18,0.13c-0.7,0-1.41,0-2.11,0c-0.02,0-0.05,0-0.07,0c0.01-0.01,0.01-0.02,0.01-0.03
			c0.18-0.21,0.25-0.46,0.25-0.73c0.01-0.43,0.01-0.87,0.02-1.31c0-0.06-0.02-0.07-0.07-0.07c-0.08,0-0.16,0-0.24,0
			c-0.31,0.02-0.53-0.2-0.58-0.46C16,20.51,16,20.41,15.99,20.3c0.03,0.02,0.05,0.02,0.06,0.03c0.1,0.09,0.23,0.13,0.37,0.12
			c0.15,0,0.29,0,0.44,0c0.04,0,0.06-0.02,0.06-0.06c0-0.17,0-0.33,0-0.5c0-0.04-0.02-0.06-0.06-0.05c-0.08,0-0.16,0-0.23,0
			c-0.41,0.02-0.6-0.31-0.62-0.57c0-0.06,0-0.12,0-0.2c0.03,0.02,0.04,0.03,0.06,0.04c0.09,0.08,0.2,0.12,0.32,0.12
			c0.16,0,0.32,0,0.47-0.01c0.03,0,0.06,0,0.06-0.05c0-0.44,0-0.88-0.01-1.32c-0.01-0.26-0.1-0.5-0.24-0.71
			c-0.01-0.01-0.01-0.02-0.02-0.03c0,0,0-0.01,0-0.02c0.02,0,0.04,0,0.07,0c0.74,0,1.47,0,2.21,0c0.53,0,1.04,0.08,1.53,0.29
			c0.8,0.34,1.31,0.92,1.53,1.76c0.02,0.07,0.05,0.09,0.12,0.09c0.12,0,0.24,0.01,0.36,0c0.26-0.01,0.45,0.19,0.52,0.39
			C23.03,19.73,23.04,19.87,23.02,20.01z M20.97,19.23c-0.03-0.11-0.05-0.22-0.07-0.32c-0.09-0.34-0.23-0.66-0.48-0.92
			c-0.36-0.38-0.82-0.55-1.34-0.57c-0.39-0.02-0.78-0.01-1.17-0.02c-0.06,0-0.07,0.02-0.07,0.07c0,0.56,0,1.12,0,1.68
			c0,0.06,0.02,0.07,0.07,0.07c0.99,0,1.98,0,2.97,0C20.91,19.23,20.93,19.23,20.97,19.23z M20.97,21.07c-0.04,0-0.06,0-0.08,0
			c-0.74,0-1.48,0-2.21,0c-0.26,0-0.52,0-0.77,0c-0.05,0-0.07,0.01-0.07,0.06c0,0.57,0,1.13,0,1.7c0,0.04,0,0.06,0.05,0.06
			c0.41-0.01,0.82-0.01,1.23-0.03c0.33-0.02,0.64-0.11,0.93-0.28c0.43-0.26,0.68-0.64,0.83-1.11
			C20.91,21.35,20.94,21.21,20.97,21.07z M21.03,19.85c-0.03,0-0.05,0-0.08,0c-0.12,0-0.23,0-0.35,0c-0.9,0-1.79,0-2.69,0
			c-0.06,0-0.08,0.02-0.08,0.08c0,0.15,0,0.29,0,0.44c0,0.09,0,0.09,0.09,0.09c1,0,2,0,3.01,0c0.02,0,0.03,0,0.05,0
			c0.04,0,0.06-0.01,0.06-0.06c0-0.11,0-0.22,0-0.32C21.03,20,21.03,19.93,21.03,19.85z"/>
	</g>
</g>
</svg>
