<?xml version="1.0" encoding="utf-8"?>
<!-- Generator: Adobe Illustrator 25.0.1, SVG Export Plug-In . SVG Version: 6.00 Build 0)  -->
<svg version="1.1" id="Layer_1" xmlns="http://www.w3.org/2000/svg" xmlns:xlink="http://www.w3.org/1999/xlink" x="0px" y="0px"
	 viewBox="0 0 32 32" enable-background="new 0 0 32 32" xml:space="preserve">
<g>
	<path fill="#D29D3F" d="M29.18,25.75c-0.35-2.07-1.55-3.51-3.55-4.14c-2.02-0.64-3.8-0.11-5.3,1.39c-0.07,0.07-0.11,0.16-0.15,0.22
		c-1.3-0.67-2.64-0.26-3.93-0.43c0-4.92,0-9.84,0-14.77c0.07,0,0.12-0.01,0.17-0.01C16.92,8,17,7.93,17,7.42c0-0.36,0-0.72,0-1.1
		c1.35,0,2.67,0,3.98,0.01c0.07,0,0.14,0.1,0.19,0.17c0.12,0.18,0.2,0.4,0.36,0.55c0.18,0.16,0.15,0.28,0.07,0.46
		c-1.05,2.37-2.08,4.74-3.12,7.12c-0.21,0.48-0.33,0.97-0.23,1.49c0.34,1.81,1.8,3.27,3.62,3.6c1.84,0.34,3.72-0.51,4.67-2.11
		c0.63-1.06,0.78-2.11,0.22-3.29c-1.06-2.25-2.01-4.56-3.02-6.83c-0.08-0.18-0.07-0.28,0.08-0.43c0.47-0.5,0.58-1.09,0.32-1.73
		c-0.24-0.6-0.83-0.98-1.47-0.97c-0.65,0-1.23,0.39-1.47,1.01c-0.07,0.19-0.16,0.23-0.35,0.23c-1.11-0.01-2.21,0-3.32,0
		c-0.17,0-0.34,0-0.54,0c0-0.32,0.01-0.61,0-0.9c-0.04-1.23-1-2.15-2.21-2.11c-1.14,0.04-2,0.95-2.04,2.16c-0.01,0.28,0,0.55,0,0.85
		c-0.14,0-0.23,0-0.32,0c-1.18,0-2.35-0.01-3.53,0.01c-0.2,0-0.28-0.06-0.36-0.25C8.27,4.71,7.77,4.38,7.08,4.36
		C6.45,4.33,5.85,4.73,5.61,5.32C5.35,5.95,5.44,6.55,5.92,7.04c0.16,0.17,0.15,0.28,0.07,0.46c-1.05,2.38-2.09,4.76-3.14,7.14
		c-0.24,0.54-0.34,1.09-0.18,1.67c0.5,1.81,1.66,2.98,3.49,3.37c1.8,0.38,3.33-0.22,4.46-1.66c0.89-1.13,1.17-2.34,0.5-3.76
		c-1.06-2.23-2-4.52-2.99-6.78C8.1,7.39,8.09,7.23,8.14,7.15C8.3,6.88,8.5,6.63,8.7,6.34c1.3,0,2.66,0,4.02,0
		c0.01,0.05,0.02,0.08,0.02,0.11c0,0.27,0,0.54,0,0.81c0,0.71,0,0.71,0.71,0.76c0.02,0,0.03,0.02,0.05,0.03c0,4.91,0,9.82,0,14.77
		c-0.13,0-0.23,0-0.34,0c-0.68,0-1.37-0.01-2.05,0c-1.35,0.02-2.37,0.76-2.81,2.02c-0.02,0.06-0.05,0.11-0.07,0.17
		c-0.06,0-0.12,0.01-0.18,0.01c-0.96,0.04-1.67,0.69-1.76,1.65c-0.04,0.43-0.01,0.86-0.02,1.3c0,0.56,0.07,0.63,0.62,0.63
		c4.03,0,8.06,0,12.1,0c0.26,0,0.4,0.05,0.53,0.31c1.16,2.24,3.79,3.3,6.19,2.5C28.08,30.62,29.59,28.2,29.18,25.75z M22.79,19.07
		c-2.18,0.07-3.73-1.72-3.83-3.26c2.48,0,4.96,0,7.44,0C26.36,17.07,25.03,19,22.79,19.07z M26.18,14.83
		c0.03,0.06,0.04,0.13,0.08,0.23c-2.4,0-4.75,0-7.15,0c0.03-0.1,0.05-0.18,0.08-0.25c1.03-2.35,2.06-4.71,3.09-7.06
		c0.06-0.14,0.12-0.24,0.3-0.21c0.18,0.04,0.37-0.07,0.49,0.2C24.1,10.11,25.14,12.47,26.18,14.83z M22.68,5.08
		c0.48,0,0.88,0.4,0.87,0.88c-0.01,0.48-0.39,0.85-0.86,0.85c-0.49,0-0.87-0.39-0.87-0.88C21.82,5.46,22.2,5.08,22.68,5.08z
		 M7.05,5.08c0.48-0.01,0.89,0.4,0.89,0.87c0,0.48-0.4,0.87-0.89,0.87C6.58,6.81,6.2,6.43,6.2,5.95C6.2,5.47,6.58,5.09,7.05,5.08z
		 M7.46,19.05c-2.05,0.17-3.97-1.33-4.12-3.25c2.49,0,4.96,0,7.43,0C10.9,17.19,9.14,18.91,7.46,19.05z M10.52,14.73
		c0.04,0.1,0.08,0.2,0.12,0.32c-2.4,0-4.76,0-7.17,0c1.11-2.52,2.2-5.02,3.29-7.5C6.79,7.54,6.8,7.54,6.81,7.54
		c0.55-0.01,0.55-0.01,0.77,0.5C8.57,10.27,9.54,12.5,10.52,14.73z M13.48,7.2c0-0.86-0.03-1.73,0.01-2.59
		c0.03-0.75,0.64-1.29,1.36-1.3c0.74-0.01,1.37,0.54,1.41,1.29c0.04,0.88,0.01,1.77,0.01,2.68c-0.94,0-1.84,0-2.75,0
		C13.51,7.25,13.48,7.23,13.48,7.2z M15.47,8.03c0,4.91,0,9.83,0,14.78c-0.4,0-0.79,0-1.2,0c0-4.93,0-9.85,0-14.78
		C14.67,8.03,15.06,8.03,15.47,8.03z M7.02,27.86c0-0.41-0.03-0.79,0.01-1.17c0.06-0.6,0.5-0.95,1.15-0.95c3.45,0,6.9,0,10.35,0
		c0.14,0,0.28,0,0.39,0c0.04,0.72,0.08,1.41,0.13,2.12C15.07,27.86,11.06,27.86,7.02,27.86z M19.18,24.91
		c-0.03,0.07-0.18,0.11-0.27,0.11c-1.04,0.01-2.07,0-3.11,0c-2.13,0-4.26,0-6.4,0c-0.11,0-0.22,0-0.35,0
		c0.15-0.7,0.89-1.33,1.65-1.44c0.17-0.02,0.34-0.03,0.51-0.03c2.43,0,4.87,0,7.3,0c0.4,0,0.8,0.04,1.15,0.25
		C19.5,24.18,19.35,24.55,19.18,24.91z M24.08,30.95c-2.44,0-4.42-1.99-4.42-4.44c0-2.44,1.99-4.43,4.43-4.43
		c2.44,0,4.43,2.01,4.43,4.44C28.52,28.96,26.52,30.95,24.08,30.95z"/>
	<path fill="#D29D3F" d="M26.19,24.69c-0.08,0.02-0.15,0.13-0.22,0.2c-0.87,0.87-1.75,1.75-2.66,2.66c-0.41-0.42-0.8-0.81-1.19-1.2
		c-0.22-0.22-0.44-0.25-0.6-0.09c-0.17,0.17-0.14,0.37,0.09,0.6c0.44,0.44,0.88,0.88,1.32,1.32c0.32,0.32,0.45,0.32,0.78,0
		c0.95-0.94,1.89-1.89,2.83-2.83c0.06-0.06,0.15-0.12,0.15-0.18c0-0.15,0.01-0.36-0.08-0.45C26.54,24.64,26.33,24.66,26.19,24.69z"
		/>
</g>
</svg>
