<?xml version="1.0" encoding="utf-8"?>
<!-- Generator: Adobe Illustrator 25.0.1, SVG Export Plug-In . SVG Version: 6.00 Build 0)  -->
<svg version="1.1" id="Layer_1" xmlns="http://www.w3.org/2000/svg" xmlns:xlink="http://www.w3.org/1999/xlink" x="0px" y="0px"
	 viewBox="0 0 32 32" enable-background="new 0 0 32 32" xml:space="preserve">
<path fill="#D29D3F" d="M14.36,17c0.81-0.81,1.62-1.61,2.44-2.43c0.03,0.02,0.09,0.07,0.14,0.12c3.42,3.18,6.84,6.37,10.25,9.55
	c0.81,0.75,1.04,1.69,0.67,2.59c-0.66,1.57-2.61,1.92-3.78,0.66c-1.98-2.12-3.94-4.24-5.91-6.37c-1.22-1.31-2.44-2.63-3.66-3.94
	C14.46,17.12,14.4,17.05,14.36,17z"/>
<path fill="#D29D3F" d="M12.79,17.28c-1.66-1.66-3.33-3.33-4.97-4.97c1.42-1.42,2.85-2.86,4.26-4.27c1.64,1.64,3.32,3.32,4.97,4.97
	C15.65,14.42,14.22,15.85,12.79,17.28z"/>
<path fill="#D29D3F" d="M14.81,4.25c0.21,0,0.49,0.1,0.73,0.33c1.65,1.65,3.31,3.3,4.95,4.96c0.51,0.51,0.49,1.22-0.02,1.73
	c-0.36,0.36-0.71,0.72-1.08,1.08c-0.53,0.52-1.27,0.51-1.8-0.01c-1.6-1.59-3.21-3.18-4.81-4.77c-0.58-0.58-0.58-1.29-0.02-1.87
	c0.34-0.35,0.68-0.7,1.03-1.06C14.04,4.38,14.34,4.25,14.81,4.25z"/>
<path fill="#D29D3F" d="M10.18,21.04c-0.33,0-0.61-0.1-0.84-0.34c-1.65-1.64-3.29-3.29-4.94-4.94c-0.5-0.5-0.49-1.25,0.01-1.76
	c0.35-0.36,0.7-0.71,1.06-1.06c0.53-0.52,1.27-0.53,1.8,0c1.64,1.63,3.27,3.26,4.9,4.9c0.45,0.45,0.5,0.91,0.16,1.45
	c-0.17,0.27-0.39,0.5-0.6,0.74c-0.23,0.24-0.48,0.47-0.73,0.7C10.78,20.94,10.5,21.04,10.18,21.04z"/>
</svg>
