<?xml version="1.0" encoding="utf-8"?>
<!-- Generator: Adobe Illustrator 25.0.1, SVG Export Plug-In . SVG Version: 6.00 Build 0)  -->
<svg version="1.1" id="Layer_1" xmlns="http://www.w3.org/2000/svg" xmlns:xlink="http://www.w3.org/1999/xlink" x="0px" y="0px"
	 viewBox="0 0 32 32" enable-background="new 0 0 32 32" xml:space="preserve">
<g>
	<path fill="#D29D3F" d="M5.03,28.33c0.15,0,0.26,0,0.38,0c7.73,0,15.46,0,23.19,0c0.52,0,0.56,0.05,0.56,0.57c0,0.41,0,0.82,0,1.23
		c0,0.29-0.11,0.39-0.39,0.4c-0.05,0-0.1,0-0.16,0c-8.41,0-16.82,0-25.23,0c-0.49,0-0.55-0.06-0.55-0.56c0-8.41,0-16.82,0-25.23
		c0-0.48,0.06-0.54,0.54-0.54c0.4,0,0.8,0,1.2,0c0.37,0,0.45,0.09,0.45,0.47c0,4.94,0,9.89,0,14.83c0,2.83,0,5.66,0,8.49
		C5.03,28.1,5.03,28.2,5.03,28.33z M28.51,29.89c0-0.32,0-0.62,0-0.93c-0.13,0-0.24,0-0.36,0c-7.74,0-15.48,0-23.21,0
		c-0.47,0-0.54-0.06-0.54-0.54c0-7.75,0-15.49,0-23.24c0-0.11,0-0.22,0-0.32c-0.33,0-0.63,0-0.93,0c0,8.36,0,16.69,0,25.04
		C11.83,29.89,20.16,29.89,28.51,29.89z"/>
	<path fill="#D29D3F" d="M13.23,6.77c0.19,0,0.32,0,0.45,0c0.18,0,0.39-0.02,0.44,0.19c0.03,0.14-0.04,0.31-0.08,0.5
		c0.73,0.53,1.33,1.25,1.64,2.18c0.69,2.04-0.14,4.79-3.21,5.42c-1.52,0.31-2.94,0.05-4.15-0.97c-1.89-1.59-1.87-4.52,0.01-6.25
		C8.49,7.7,8.66,7.56,8.84,7.41C8.81,7.38,8.78,7.34,8.75,7.3c-0.17-0.24-0.06-0.5,0.24-0.53c0.09-0.01,0.19,0,0.29,0
		c0.09,0,0.19,0,0.33,0C9.33,6.3,9.09,5.86,8.84,5.42C8.8,5.35,8.76,5.27,8.72,5.2C8.46,4.74,8.52,4.57,9,4.36
		c0.46-0.2,0.93-0.19,1.4-0.02c0.1,0.04,0.23,0.03,0.33,0c0.45-0.17,0.9-0.16,1.35-0.01c0.11,0.04,0.25,0.04,0.36,0
		C12.98,4.14,13.5,4.15,14,4.45c0.31,0.19,0.34,0.34,0.17,0.65C13.86,5.64,13.56,6.19,13.23,6.77z M11.42,7.4c-0.35,0-0.7,0-1.04,0
		c-0.1,0-0.21,0.02-0.3,0.06C9.46,7.72,8.93,8.08,8.49,8.58c-1.44,1.61-1.2,4.07,0.51,5.25c0.6,0.41,1.27,0.64,2,0.69
		c1.33,0.1,2.53-0.22,3.45-1.24c1.32-1.47,1.05-3.84-0.56-5.15c-0.6-0.49-1.25-0.85-2.07-0.74C11.68,7.42,11.55,7.4,11.42,7.4z
		 M13.55,4.92c-0.37-0.13-0.71-0.13-1.01,0.09c-0.19,0.14-0.34,0.15-0.54,0C11.67,4.77,11.17,4.76,10.85,5
		c-0.2,0.15-0.35,0.15-0.56,0c-0.3-0.22-0.63-0.22-1-0.08c0.34,0.6,0.66,1.18,0.98,1.75c0.03,0.05,0.12,0.1,0.19,0.1
		c0.64,0.01,1.27,0.01,1.91,0c0.07,0,0.16-0.04,0.19-0.09C12.89,6.1,13.21,5.52,13.55,4.92z"/>
	<path fill="#D29D3F" d="M25.55,11.77c-0.17,0-0.29,0-0.41,0c-0.2-0.01-0.34-0.11-0.34-0.31c0-0.21,0.13-0.31,0.34-0.31
		c0.38,0,0.77,0,1.15,0c0.24,0,0.36,0.12,0.36,0.35c0.01,0.38,0.01,0.77,0,1.15c0,0.2-0.1,0.34-0.31,0.34
		c-0.23,0-0.32-0.15-0.31-0.36c0-0.11,0-0.22,0-0.4c-0.11,0.11-0.19,0.17-0.26,0.24c-1.98,1.97-3.95,3.95-5.93,5.93
		c-0.32,0.32-0.35,0.32-0.74,0.1c-1.45-0.83-2.89-1.67-4.34-2.5c-0.07-0.04-0.14-0.07-0.26-0.14c-0.05,0.08-0.11,0.17-0.18,0.24
		c-2.21,2.22-4.43,4.43-6.64,6.65c-0.03,0.03-0.06,0.06-0.09,0.09c-0.25,0.25-0.42,0.28-0.58,0.12c-0.15-0.16-0.12-0.31,0.12-0.55
		c2.02-2.02,4.04-4.04,6.05-6.05c0.32-0.32,0.64-0.64,0.96-0.96c0.27-0.27,0.33-0.28,0.65-0.09c1.47,0.85,2.94,1.69,4.4,2.54
		c0.15,0.09,0.23,0.08,0.35-0.04c1.93-1.94,3.87-3.88,5.81-5.82C25.42,11.92,25.46,11.86,25.55,11.77z"/>
	<path fill="#D29D3F" d="M26.65,21.92c0,1.69,0,3.38,0,5.06c0,0.43-0.08,0.51-0.52,0.51c-1.07,0-2.14,0-3.21,0
		c-0.39,0-0.48-0.09-0.48-0.47c0-3.4,0-6.8,0-10.2c0-0.38,0.09-0.48,0.48-0.48c1.09,0,2.17,0,3.26,0c0.38,0,0.47,0.09,0.47,0.48
		C26.65,18.53,26.65,20.22,26.65,21.92z M23.08,16.99c0,3.3,0,6.58,0,9.86c0.99,0,1.96,0,2.92,0c0-3.3,0-6.57,0-9.86
		C25.02,16.99,24.05,16.99,23.08,16.99z"/>
	<path fill="#D29D3F" d="M17.26,23.43c0-1.2,0-2.4,0-3.6c0-0.41,0.08-0.49,0.48-0.49c1.09,0,2.17,0,3.26,0
		c0.39,0,0.47,0.09,0.47,0.48c0,2.4,0,4.8,0,7.2c0,0.39-0.09,0.48-0.5,0.48c-1.06,0-2.12,0-3.18,0c-0.46,0-0.53-0.08-0.53-0.52
		C17.26,25.79,17.26,24.61,17.26,23.43z M17.91,19.97c0,2.32,0,4.6,0,6.87c0.99,0,1.96,0,2.92,0c0-2.3,0-4.59,0-6.87
		C19.85,19.97,18.88,19.97,17.91,19.97z"/>
	<path fill="#D29D3F" d="M16.3,24.58c0,0.82,0,1.63,0,2.45c0,0.37-0.1,0.47-0.46,0.47c-1.1,0-2.21,0-3.31,0
		c-0.33,0-0.44-0.1-0.44-0.43c0-1.65,0-3.3,0-4.96c0-0.34,0.11-0.45,0.46-0.45c1.1,0,2.19,0,3.29,0c0.37,0,0.47,0.1,0.47,0.46
		C16.3,22.94,16.3,23.76,16.3,24.58z M15.66,26.86c0-1.53,0-3.03,0-4.55c-0.98,0-1.95,0-2.93,0c0,1.53,0,3.03,0,4.55
		C13.71,26.86,14.67,26.86,15.66,26.86z"/>
	<path fill="#D29D3F" d="M9.03,27.5c-0.56,0-1.11,0-1.67,0c-0.33,0-0.44-0.1-0.44-0.44c0-0.98,0-1.97,0-2.95
		c0-0.32,0.11-0.42,0.42-0.42c1.12,0,2.24,0,3.37,0c0.32,0,0.42,0.11,0.42,0.42c0,0.98,0,1.97,0,2.95c0,0.33-0.11,0.44-0.44,0.44
		C10.14,27.5,9.58,27.5,9.03,27.5z M7.56,24.32c0,0.86,0,1.69,0,2.53c0.98,0,1.95,0,2.92,0c0-0.85,0-1.69,0-2.53
		C9.5,24.32,8.54,24.32,7.56,24.32z"/>
	<g>
		<path fill="#D29D3F" d="M14.09,11.1c-0.01-0.01-0.02-0.02-0.03-0.03C14,11.03,13.94,11,13.86,11c-0.11,0-0.23,0-0.34,0
			c-0.03,0-0.04,0.01-0.04,0.03c0,0.11,0,0.22,0,0.33c0,0.03,0.01,0.03,0.04,0.03c0.06,0,0.13,0,0.19,0
			c0.21,0.01,0.34,0.14,0.37,0.35c0.01,0.05,0.01,0.1,0.01,0.15c-0.01,0-0.01,0-0.01,0c-0.07-0.08-0.17-0.1-0.27-0.1
			c-0.11,0-0.23,0-0.34,0c-0.04,0-0.05,0.01-0.06,0.05c-0.08,0.35-0.26,0.65-0.53,0.89c-0.23,0.19-0.49,0.31-0.78,0.38
			c-0.26,0.07-0.52,0.09-0.78,0.09c-0.46,0-0.93,0-1.39,0c-0.02,0-0.03,0-0.05,0c0-0.01,0.01-0.01,0.01-0.02
			c0.12-0.14,0.16-0.3,0.17-0.48c0.01-0.29,0.01-0.57,0.01-0.86c0-0.04-0.01-0.05-0.05-0.05c-0.05,0-0.11,0-0.16,0
			c-0.21,0.01-0.35-0.13-0.38-0.3c-0.01-0.06-0.01-0.13-0.02-0.2c0.02,0.01,0.03,0.02,0.04,0.02c0.07,0.06,0.15,0.08,0.24,0.08
			c0.1,0,0.19,0,0.29,0c0.03,0,0.04-0.01,0.04-0.04c0-0.11,0-0.22,0-0.33c0-0.03-0.01-0.04-0.04-0.04c-0.05,0-0.1,0-0.15,0
			c-0.27,0.01-0.4-0.2-0.41-0.38c0-0.04,0-0.08,0-0.13c0.02,0.01,0.03,0.02,0.04,0.03c0.06,0.05,0.13,0.08,0.21,0.08
			c0.1,0,0.21,0,0.31,0c0.02,0,0.04,0,0.04-0.03c0-0.29,0-0.58-0.01-0.87C10.05,9.53,9.99,9.37,9.9,9.23c0-0.01-0.01-0.01-0.01-0.02
			c0,0,0-0.01,0-0.01c0.01,0,0.03,0,0.04,0c0.48,0,0.97,0,1.45,0c0.35,0,0.69,0.05,1.01,0.19c0.53,0.22,0.86,0.61,1.01,1.16
			c0.01,0.05,0.03,0.06,0.08,0.06c0.08,0,0.16,0,0.24,0c0.17-0.01,0.3,0.13,0.34,0.26C14.09,10.92,14.1,11.01,14.09,11.1z
			 M12.74,10.59c-0.02-0.07-0.03-0.14-0.05-0.21c-0.06-0.22-0.15-0.43-0.31-0.6c-0.24-0.25-0.54-0.36-0.88-0.38
			c-0.26-0.01-0.52-0.01-0.77-0.01c-0.04,0-0.05,0.01-0.05,0.05c0,0.37,0,0.74,0,1.11c0,0.04,0.01,0.05,0.05,0.05
			c0.65,0,1.31,0,1.96,0C12.7,10.59,12.71,10.59,12.74,10.59z M12.74,11.8c-0.02,0-0.04,0-0.06,0c-0.49,0-0.97,0-1.46,0
			c-0.17,0-0.34,0-0.51,0c-0.03,0-0.04,0.01-0.04,0.04c0,0.37,0,0.75,0,1.12c0,0.02,0,0.04,0.03,0.04c0.27-0.01,0.54-0.01,0.81-0.02
			c0.22-0.01,0.42-0.07,0.61-0.18c0.28-0.17,0.45-0.42,0.54-0.73C12.7,11.98,12.72,11.9,12.74,11.8z M12.78,11
			c-0.02,0-0.04,0-0.05,0c-0.08,0-0.15,0-0.23,0c-0.59,0-1.18,0-1.77,0c-0.04,0-0.05,0.01-0.05,0.05c0,0.1,0,0.19,0,0.29
			c0,0.06,0,0.06,0.06,0.06c0.66,0,1.32,0,1.98,0c0.01,0,0.02,0,0.03,0c0.03,0,0.04-0.01,0.04-0.04c0-0.07,0-0.14,0-0.21
			C12.78,11.1,12.78,11.05,12.78,11z"/>
	</g>
</g>
</svg>
