<?xml version="1.0" encoding="utf-8"?>
<!-- Generator: Adobe Illustrator 25.0.1, SVG Export Plug-In . SVG Version: 6.00 Build 0)  -->
<svg version="1.1" id="Layer_1" xmlns="http://www.w3.org/2000/svg" xmlns:xlink="http://www.w3.org/1999/xlink" x="0px" y="0px"
	 viewBox="0 0 32 32" enable-background="new 0 0 32 32" xml:space="preserve">
<g>
	<path fill="#D29D3F" d="M26.74,9.2c0.34,0,0.47-0.11,0.47-0.47c0.01-0.46,0.01-0.93,0-1.39c0-0.42-0.1-0.53-0.53-0.53
		c-0.97,0-1.96-0.01-2.93,0c-0.18,0-0.24-0.05-0.24-0.24c0.02-0.31,0.01-0.62,0.01-0.92c-0.01-0.32-0.13-0.45-0.45-0.45
		c-0.4-0.01-0.8,0-1.2,0c-1.28,0-2.57-0.01-3.85,0c-0.23,0-0.29-0.07-0.28-0.28c0.02-0.28,0-0.54,0-0.81c0-0.42-0.09-0.53-0.53-0.53
		H5.01c-0.42,0-0.53,0.11-0.53,0.52v21.51c0,0.39,0.11,0.5,0.5,0.5c2.92,0.01,5.84,0.01,8.78,0.01v-5.39c0-0.47,0.18-0.89,0.48-1.2
		l0.24-0.21c0.29-0.22,0.64-0.34,1.03-0.34h10.05c0.37,0,0.72,0.11,1,0.32h0.18c0.33-0.01,0.46-0.13,0.46-0.46
		c0.01-0.46,0.01-0.93,0-1.39c0-0.45-0.09-0.55-0.54-0.55h-1V9.2H26.74z M17.74,5.97h5.01V6.8c-0.07,0.01-0.15,0.02-0.22,0.02
		c-1.51,0-3.03-0.01-4.54,0c-0.19,0-0.26-0.05-0.25-0.25C17.75,6.37,17.74,6.18,17.74,5.97z M16.01,4.34c0.29,0,0.58,0,0.88,0.01
		c0.03,0,0.1,0.08,0.1,0.11V6.8h-0.99V4.34z M14.24,4.36h0.97V6.8h-0.97V4.36z M13.48,25.38H5.24c-0.01-0.09-0.01-0.18-0.01-0.28
		c0-6.83,0-13.65-0.01-20.47c0-0.23,0.06-0.29,0.29-0.29h7.98v2.48H13.2c-1.44,0-2.89,0.02-4.33-0.01c-0.96-0.02-1.56,0.7-1.55,1.54
		c0.02,3.15,0.02,6.29,0,9.43c-0.01,0.88,0.62,1.57,1.54,1.56c1.43-0.03,2.88-0.01,4.31-0.01h0.31V25.38z M15.94,13.89
		c-0.19,0.19-0.4,0.22-0.56,0.07c-0.18-0.15-0.18-0.37,0.01-0.57c0.83-0.89,1.65-1.78,2.48-2.66c0.13-0.14,0.28-0.22,0.44-0.13
		c0.11,0.07,0.19,0.19,0.3,0.31c-0.08,0.14-0.11,0.24-0.18,0.32C17.59,12.13,16.77,13.01,15.94,13.89z M17.9,13.85
		c-0.46,0.5-0.92,1-1.39,1.49c-0.08,0.08-0.19,0.13-0.33,0.22c-0.13-0.1-0.28-0.17-0.3-0.26c-0.03-0.14-0.01-0.32,0.07-0.44
		c0.22-0.28,0.48-0.53,0.73-0.79c0.22-0.24,0.44-0.48,0.65-0.71c0.21-0.22,0.42-0.24,0.6-0.08C18.11,13.43,18.1,13.64,17.9,13.85z
		 M9.6,8.46c-0.1,0-0.21,0-0.31,0.01C9.11,8.51,9,8.62,8.98,8.81v8.24c0,0.55,0.07,0.62,0.61,0.62h16.87v0.78
		c0,0.16-0.13,0.13-0.22,0.13h-2.05c-2.28-0.01-4.54-0.01-6.81-0.01c-2.84,0-5.67,0.01-8.5,0c-0.19,0-0.41-0.06-0.57-0.16
		c-0.22-0.13-0.23-0.37-0.23-0.61V8.25c0.01-0.44,0.25-0.69,0.68-0.69c1.68,0,3.37,0.01,5.05,0.01c1.01,0,2.02-0.01,3.03-0.01
		c1.93-0.01,3.85,0,5.79,0c1.19,0,2.4,0,3.59-0.01c0.21,0,0.28,0.06,0.26,0.26c-0.02,0.21-0.01,0.41-0.01,0.64H9.6z"/>
	<path fill="#D29D3F" d="M24.9,20.13h-8.82c-0.85,0-1.54,0.64-1.54,1.42v5.43c0,0.78,0.69,1.42,1.54,1.42h8.82
		c0.85,0,1.54-0.64,1.54-1.42v-5.43C26.44,20.77,25.75,20.13,24.9,20.13z M24.57,26.53h-8.15c-0.21,0-0.39-0.16-0.39-0.35
		c0-0.2,0.17-0.35,0.39-0.35h8.15c0.21,0,0.39,0.16,0.39,0.35C24.95,26.37,24.78,26.53,24.57,26.53z M24.57,24.59h-8.15
		c-0.21,0-0.39-0.16-0.39-0.35c0-0.2,0.17-0.35,0.39-0.35h8.15c0.21,0,0.39,0.16,0.39,0.35C24.95,24.43,24.78,24.59,24.57,24.59z
		 M24.57,22.64h-8.15c-0.21,0-0.39-0.16-0.39-0.35c0-0.2,0.17-0.35,0.39-0.35h8.15c0.21,0,0.39,0.16,0.39,0.35
		C24.95,22.48,24.78,22.64,24.57,22.64z"/>
</g>
</svg>
