<?xml version="1.0" encoding="utf-8"?>
<!-- Generator: Adobe Illustrator 25.0.1, SVG Export Plug-In . SVG Version: 6.00 Build 0)  -->
<svg version="1.1" id="Layer_1" xmlns="http://www.w3.org/2000/svg" xmlns:xlink="http://www.w3.org/1999/xlink" x="0px" y="0px"
	 viewBox="0 0 32 32" enable-background="new 0 0 32 32" xml:space="preserve">
<g>
	<path fill="#D29D3F" d="M12.96,25c-0.07-0.01-0.15-0.01-0.29-0.01c-0.01,0-1.88,0-1.88,0c-0.58,0-1.16,0-1.74-0.01
		c-0.23,0-0.45-0.05-0.62-0.14c-0.33-0.17-0.49-0.47-0.49-0.94c0-2.63,0-5.26,0-7.9c0-0.59-0.24-0.83-0.85-0.83l-2.3,0l10.32-9.32
		l0.17,0.15c0,0,2.8,2.52,3.79,3.43c0.17,0.15,0.34,0.23,0.53,0.23c0.09,0,0.18-0.02,0.27-0.06c0.19-0.08,0.42-0.27,0.41-0.7
		c0-0.21,0-0.41,0-0.62l0-1.56h2l0,1.3c0,1.29,0,2.57,0.01,3.86c0,0.1,0.02,0.43,0.2,0.6c0.67,0.65,1.37,1.27,2.07,1.89
		c0.12,0.11,0.27,0.17,0.43,0.17c0.14,0,0.28-0.05,0.4-0.13c0.26-0.18,0.36-0.52,0.23-0.79c-0.05-0.1-0.13-0.21-0.25-0.32
		c-0.52-0.48-1.03-0.95-1.56-1.41c-0.12-0.11-0.17-0.21-0.17-0.36c0.01-1.52,0.01-3.04,0-4.55l0-0.79c0-0.56-0.26-0.82-0.84-0.82
		l-2.94,0c-0.73,0-0.94,0.21-0.94,0.92v1.18l-0.67-0.6c-0.43-0.39-0.86-0.78-1.3-1.17c-0.37-0.33-0.74-0.65-1.11-0.97l-0.57-0.46
		l-0.39,0.03l-0.13,0.1c-0.1,0.07-0.19,0.14-0.28,0.22L3.85,14.19c-0.29,0.26-0.51,0.51-0.63,0.89l0.01,0.5
		c0.24,0.63,0.7,0.95,1.39,0.95c0.05,0,0.11,0,0.17-0.01c0.09-0.01,0.18-0.01,0.27-0.01l1.53,0.01l0,7.34c0,1.5,0.99,2.48,2.53,2.48
		l1.31,0l2.27,0c0.09,0,0.19,0,0.28-0.02c0.34-0.06,0.58-0.32,0.58-0.65C13.56,25.33,13.31,25.06,12.96,25z"/>
	<path fill="#D29D3F" d="M27.72,20.85l-0.1-0.58c-0.51-3.25-3.59-5.79-7.01-5.79c-0.5,0-0.99,0.05-1.47,0.16
		c-3.66,0.81-6.01,4.03-5.59,7.67c0.31,2.65,2.37,5.02,5,5.75c0.33,0.09,0.66,0.15,1,0.21l0.48,0.09h1.17l0.01,0
		c0.16-0.03,0.33-0.06,0.49-0.09c0.36-0.06,0.73-0.13,1.08-0.25c2.81-0.98,4.45-2.94,4.88-5.83c0-0.03,0.01-0.06,0.05-0.18
		L27.72,20.85z M26.41,21.31c0.05,1.4-0.45,2.76-1.42,3.82c-1.07,1.18-2.62,1.89-4.26,1.95l-0.2,0c-2.99,0-5.62-2.46-5.73-5.38
		c-0.06-1.48,0.46-2.91,1.47-4.02c1.05-1.16,2.49-1.83,4.05-1.89l0.23,0C23.78,15.79,26.3,18.16,26.41,21.31z"/>
	<path fill="#D29D3F" d="M23.31,18.69c-0.2,0-0.39,0.1-0.55,0.27c-0.22,0.24-0.44,0.49-0.67,0.74l-2.6,2.89l-0.34-0.33
		c-0.42-0.41-0.82-0.81-1.24-1.2c-0.12-0.12-0.27-0.21-0.4-0.25c-0.05-0.02-0.11-0.02-0.17-0.02c-0.22,0-0.43,0.12-0.54,0.32
		c-0.15,0.26-0.1,0.57,0.13,0.8c0.69,0.68,1.39,1.36,2.09,2.03c0.16,0.15,0.33,0.23,0.5,0.23c0.19,0,0.38-0.1,0.56-0.29
		c1.22-1.35,2.44-2.71,3.65-4.06c0.15-0.16,0.22-0.35,0.21-0.53c-0.01-0.16-0.08-0.31-0.21-0.43
		C23.61,18.75,23.46,18.69,23.31,18.69z"/>
</g>
</svg>
