<?xml version="1.0" encoding="utf-8"?>
<!-- Generator: Adobe Illustrator 25.0.1, SVG Export Plug-In . SVG Version: 6.00 Build 0)  -->
<svg version="1.1" id="Layer_1" xmlns="http://www.w3.org/2000/svg" xmlns:xlink="http://www.w3.org/1999/xlink" x="0px" y="0px"
	 viewBox="0 0 32 32" enable-background="new 0 0 32 32" xml:space="preserve">
<g>
	<path fill="#D29D3F" d="M28.58,21.01c-0.31-0.01-0.63,0-0.94,0.06c-0.47,0.08-0.87,0.34-1.26,0.68c0.1-0.35,0.2-0.64,0.28-0.95
		c0.04-0.15,0.09-0.2,0.25-0.2c0.59,0.01,1.1-0.21,1.49-0.65c0.78-0.86,0.99-1.92,0.99-3.04c0-0.27-0.16-0.34-0.45-0.26
		c-0.72,0.2-1.28,0.63-1.7,1.25c-0.04,0.06-0.08,0.12-0.14,0.2c0-0.36,0.01-0.68,0-1c0-0.13,0.03-0.19,0.16-0.24
		c0.42-0.14,0.76-0.4,1.03-0.76c0.32-0.43,0.47-0.92,0.52-1.45c0.07-0.72,0.03-1.44-0.2-2.13c-0.1-0.3-0.26-0.35-0.52-0.16
		c-0.61,0.44-1.01,1.03-1.24,1.74c-0.03,0.09-0.06,0.18-0.1,0.3c-0.1-0.34-0.17-0.64-0.27-0.94c-0.04-0.13-0.01-0.2,0.09-0.28
		c0.4-0.31,0.66-0.72,0.8-1.21c0.16-0.55,0.12-1.1-0.01-1.65c-0.15-0.62-0.37-1.22-0.76-1.74c-0.19-0.26-0.35-0.25-0.53,0.01
		C25.78,9,25.59,9.46,25.5,9.94c-0.06,0.33-0.08,0.66-0.12,1c-0.17-0.26-0.34-0.51-0.51-0.77c-0.06-0.09-0.1-0.2-0.12-0.3
		C24.64,9.23,24.4,8.63,24,8.12c-0.66-0.84-1.54-1.24-2.6-1.25c-0.36,0-0.49,0.18-0.35,0.46c0.69,1.37,1.68,2.43,3.15,2.98
		c0.06,0.02,0.13,0.05,0.17,0.1c0.21,0.29,0.4,0.6,0.63,0.94c-0.92-0.35-1.55-0.3-2.27,0.13c-0.22,0.13-0.25,0.28-0.11,0.47
		c0.11,0.14,0.22,0.27,0.34,0.4c0.47,0.5,0.99,0.96,1.68,1.11c0.41,0.09,0.85,0.08,1.32,0.13c0.07,0.26,0.16,0.57,0.24,0.89
		c-0.06,0-0.09-0.02-0.11-0.04c-0.61-0.53-1.32-0.63-2.08-0.44c-0.22,0.05-0.29,0.2-0.2,0.42c0.06,0.16,0.13,0.31,0.21,0.46
		c0.51,1.04,1.22,1.85,2.43,2.06c0.04,0.01,0.1,0.07,0.1,0.11c0.01,0.3,0,0.61,0,0.97c-0.06-0.08-0.07-0.1-0.09-0.12
		c-0.37-0.62-0.93-0.95-1.64-1.07c-0.45-0.08-0.6,0.07-0.54,0.5c0.18,1.28,0.61,2.4,1.81,3.07c0.04,0.02,0.08,0.09,0.07,0.13
		c-0.08,0.29-0.16,0.58-0.25,0.87c-0.06-0.06-0.07-0.11-0.09-0.17c-0.22-0.76-0.71-1.26-1.44-1.55c-0.23-0.09-0.38-0.02-0.43,0.22
		c-0.12,0.65-0.17,1.31-0.04,1.97c0.13,0.69,0.45,1.28,0.95,1.79c-0.18,0.27-0.35,0.53-0.52,0.79c-0.01,0-0.03-0.01-0.04-0.01
		c0-0.03,0-0.06,0-0.08c0.05-0.83-0.29-1.48-0.92-2c-0.21-0.17-0.37-0.13-0.5,0.1c-0.04,0.08-0.08,0.17-0.12,0.26
		c-0.52,1.13-0.66,2.28-0.09,3.43c0.06,0.13,0,0.18-0.08,0.23c-0.47,0.34-0.93,0.69-1.4,1.03c-0.2,0.14-0.27,0.28-0.18,0.43
		c0.09,0.15,0.26,0.16,0.46,0.03c0.34-0.23,0.68-0.46,1.01-0.7c0.2-0.14,0.38-0.31,0.57-0.46c0.58,0.49,1.22,0.7,1.94,0.48
		c0.94-0.29,1.61-0.93,2.13-1.74c0.12-0.19,0.02-0.32-0.14-0.42c-0.43-0.25-0.9-0.37-1.39-0.31c-0.31,0.03-0.61,0.12-0.91,0.19
		c0.17-0.26,0.35-0.52,0.52-0.8c0.07-0.12,0.13-0.14,0.26-0.09c0.53,0.2,1.06,0.18,1.55-0.09c1-0.55,1.57-1.43,1.84-2.51
		C28.96,21.15,28.86,21.02,28.58,21.01z"/>
	<path fill="#D29D3F" d="M11.91,27.42c-0.47-0.34-0.94-0.68-1.4-1.03c-0.08-0.06-0.14-0.11-0.08-0.23c0.57-1.16,0.43-2.3-0.09-3.43
		c-0.04-0.09-0.08-0.17-0.12-0.26c-0.12-0.24-0.29-0.27-0.5-0.1c-0.62,0.52-0.96,1.17-0.92,2c0,0.03,0,0.05,0,0.08
		c-0.01,0-0.03,0.01-0.04,0.01c-0.17-0.26-0.34-0.52-0.52-0.79c0.51-0.51,0.83-1.1,0.95-1.79c0.12-0.66,0.08-1.32-0.04-1.97
		c-0.04-0.23-0.2-0.31-0.43-0.22c-0.72,0.29-1.22,0.79-1.44,1.55c-0.02,0.05-0.03,0.11-0.09,0.17c-0.08-0.29-0.17-0.58-0.25-0.87
		c-0.01-0.04,0.03-0.11,0.07-0.13c1.21-0.67,1.63-1.79,1.81-3.07c0.06-0.43-0.09-0.58-0.54-0.5c-0.71,0.12-1.26,0.45-1.64,1.07
		c-0.01,0.02-0.03,0.04-0.09,0.12c0-0.37,0-0.67,0-0.97c0-0.04,0.06-0.1,0.1-0.11c1.21-0.22,1.92-1.02,2.43-2.06
		c0.07-0.15,0.14-0.31,0.21-0.46c0.09-0.22,0.02-0.36-0.2-0.42c-0.76-0.18-1.47-0.09-2.08,0.44c-0.02,0.02-0.04,0.03-0.11,0.04
		c0.09-0.32,0.17-0.63,0.24-0.89c0.47-0.04,0.91-0.03,1.32-0.13c0.69-0.15,1.21-0.61,1.68-1.11c0.12-0.13,0.24-0.26,0.34-0.4
		c0.15-0.19,0.11-0.34-0.11-0.47C9.67,11.05,9.04,11,8.12,11.35C8.35,11,8.54,10.7,8.75,10.41c0.03-0.05,0.11-0.07,0.17-0.1
		c1.46-0.56,2.46-1.61,3.15-2.98c0.14-0.28,0.02-0.46-0.35-0.46c-1.06,0.01-1.94,0.41-2.6,1.25C8.71,8.63,8.47,9.23,8.36,9.88
		c-0.02,0.1-0.06,0.21-0.12,0.3c-0.16,0.26-0.33,0.51-0.51,0.77c-0.04-0.34-0.06-0.67-0.12-1C7.52,9.46,7.33,9,7.04,8.6
		C6.85,8.34,6.7,8.33,6.51,8.59c-0.39,0.52-0.6,1.12-0.76,1.74c-0.14,0.55-0.17,1.1-0.01,1.65c0.14,0.49,0.4,0.9,0.8,1.21
		c0.1,0.08,0.13,0.15,0.09,0.28c-0.1,0.3-0.18,0.6-0.27,0.94c-0.04-0.13-0.07-0.22-0.1-0.3c-0.23-0.71-0.63-1.31-1.24-1.74
		c-0.26-0.19-0.42-0.14-0.52,0.16c-0.23,0.69-0.27,1.41-0.2,2.13c0.05,0.53,0.2,1.02,0.52,1.45c0.27,0.36,0.61,0.62,1.03,0.76
		c0.13,0.04,0.16,0.11,0.16,0.24c-0.01,0.32,0,0.64,0,1c-0.06-0.09-0.1-0.15-0.14-0.2c-0.41-0.62-0.97-1.05-1.7-1.25
		c-0.3-0.08-0.45-0.01-0.45,0.26c0,1.12,0.22,2.18,0.99,3.04c0.39,0.43,0.9,0.65,1.49,0.65c0.16,0,0.21,0.05,0.25,0.2
		c0.07,0.3,0.18,0.6,0.28,0.95c-0.4-0.34-0.79-0.59-1.26-0.68C5.16,21.01,4.84,21,4.53,21.01c-0.28,0.01-0.37,0.14-0.3,0.41
		c0.28,1.08,0.85,1.96,1.84,2.51c0.49,0.27,1.03,0.29,1.55,0.09c0.13-0.05,0.19-0.03,0.26,0.09c0.17,0.27,0.35,0.54,0.52,0.8
		c-0.3-0.06-0.6-0.15-0.91-0.19c-0.49-0.05-0.96,0.06-1.39,0.31c-0.17,0.1-0.26,0.23-0.14,0.42c0.52,0.81,1.19,1.46,2.13,1.74
		c0.71,0.22,1.36,0.01,1.94-0.48c0.19,0.15,0.37,0.32,0.57,0.46c0.33,0.24,0.67,0.48,1.01,0.7c0.21,0.14,0.37,0.12,0.46-0.03
		C12.18,27.7,12.11,27.56,11.91,27.42z"/>
	<path fill="#D29D3F" d="M22.14,18.74c0-0.22,0-0.44,0-0.66c-0.03-0.21-0.05-0.43-0.09-0.64c-0.32-1.69-1.21-2.98-2.67-3.87
		c-0.95-0.58-2-0.84-3.11-0.78c-1.59,0.08-2.93,0.72-3.99,1.91c-0.8,0.9-1.27,1.95-1.37,3.15c-0.16,1.78,0.4,3.32,1.66,4.58
		c0.84,0.84,1.87,1.35,3.04,1.55c0.19,0.03,0.38,0.05,0.57,0.07c0.22,0,0.44,0,0.66,0c0.21-0.03,0.43-0.05,0.64-0.09
		c1.28-0.23,2.35-0.83,3.22-1.79c0.82-0.91,1.28-1.98,1.41-3.19C22.12,18.9,22.13,18.82,22.14,18.74z M19.69,16.89
		c-0.03,0.04-0.06,0.07-0.1,0.1c-1.16,1.15-2.33,2.31-3.49,3.46c-0.28,0.28-0.58,0.29-0.87,0.02c-0.6-0.55-1.21-1.1-1.81-1.65
		c-0.15-0.14-0.24-0.3-0.22-0.51c0.02-0.21,0.13-0.37,0.32-0.45c0.2-0.08,0.39-0.07,0.56,0.07c0.32,0.27,0.62,0.56,0.93,0.84
		c0.21,0.19,0.41,0.38,0.63,0.58c0.04-0.04,0.06-0.08,0.09-0.11c1.02-1.02,2.05-2.05,3.07-3.07c0.23-0.23,0.48-0.27,0.73-0.13
		C19.84,16.21,19.92,16.61,19.69,16.89z"/>
</g>
</svg>
