<?xml version="1.0" encoding="utf-8"?>
<!-- Generator: Adobe Illustrator 25.0.1, SVG Export Plug-In . SVG Version: 6.00 Build 0)  -->
<svg version="1.1" id="Layer_1" xmlns="http://www.w3.org/2000/svg" xmlns:xlink="http://www.w3.org/1999/xlink" x="0px" y="0px"
	 viewBox="0 0 32 32" enable-background="new 0 0 32 32" xml:space="preserve">
<path fill="#D29D3F" d="M22.58,23.18c0-0.33-0.26-0.56-0.66-0.56c-3.67,0-7.35,0-11.02,0c-0.41,0-0.66,0.22-0.66,0.55
	c0,0.34,0.26,0.56,0.68,0.57c0.06,0,0.12,0,0.18,0c1.77,0,3.54,0,5.31,0c1.83,0,3.66,0,5.5,0C22.32,23.74,22.58,23.52,22.58,23.18z"
	/>
<path fill="#D29D3F" d="M19.55,24.86c-1.04,0-2.08,0-3.13,0c-1.06,0-2.12,0-3.18,0c-0.49,0-0.76,0.2-0.76,0.57
	c0,0.36,0.27,0.56,0.77,0.56c2.1,0,4.2,0,6.31,0c0.11,0,0.23-0.01,0.34-0.03c0.26-0.05,0.43-0.27,0.43-0.52
	c0-0.26-0.16-0.47-0.41-0.54C19.8,24.87,19.67,24.86,19.55,24.86z"/>
<g>
	<path fill="#D29D3F" d="M25.52,26.86c0,0.91-0.43,1.34-1.33,1.34H8.88c-0.89,0-1.32-0.44-1.32-1.33V8.2c0-0.33,0.04-0.65,0.26-0.91
		C8.1,6.95,8.47,6.87,8.88,6.87h14.06c0.07-0.03,0.14-0.06,0.21-0.09l0.18-1.03h-0.06c0-0.37,0.01-0.72,0-1.07
		c0-0.63-0.21-1.19-0.65-1.64c-0.36-0.36-0.81-0.54-1.29-0.66h-0.58c-0.12,0.04-0.25,0.08-0.37,0.11c-2.95,0.82-5.89,1.64-8.83,2.45
		C10.5,5.23,9.46,5.55,8.4,5.78C7.22,6.03,6.44,6.85,6.44,8.05v18.96c0,1.34,0.98,2.3,2.32,2.31c5.19,0,10.38,0,15.56-0.01
		c0.35,0,0.73-0.08,1.04-0.23c0.89-0.42,1.28-1.18,1.28-2.15V11.02l-1.12-0.23V26.86z M15.2,5.09c1.82-0.5,3.64-1,5.46-1.5
		c0.84-0.23,1.48,0.24,1.49,1.1c0.01,0.34,0.01,0.68,0.01,1.04H13c0-0.01-0.01-0.01-0.01-0.02C13.72,5.5,14.46,5.3,15.2,5.09z"/>
	<path fill="#D29D3F" d="M16.56,9.12c-3.39-0.02-6.17,2.75-6.19,6.16c-0.01,3.39,2.76,6.17,6.17,6.18c3.38,0.01,6.17-2.77,6.17-6.17
		C22.7,11.89,19.95,9.14,16.56,9.12z M15.02,13.39c0.11-0.8,0.3-1.58,0.67-2.3c0.1-0.19,0.21-0.37,0.34-0.53
		c0.33-0.42,0.7-0.42,1.02,0c0.18,0.23,0.33,0.5,0.45,0.76c0.47,1.07,0.64,2.21,0.69,3.4h-3.32C14.92,14.27,14.96,13.83,15.02,13.39
		z M14.57,10.69c-0.19,0.63-0.41,1.29-0.56,1.97c-0.14,0.67-0.2,1.36-0.3,2.06h-2.13C11.67,13.01,13.05,11.2,14.57,10.69z
		 M11.56,15.87h2.19c0.09,1.4,0.28,2.77,0.9,4.05C13.31,19.48,11.79,17.95,11.56,15.87z M17.95,17.81
		c-0.14,0.75-0.37,1.48-0.82,2.12c-0.39,0.53-0.78,0.54-1.17,0c-0.51-0.71-0.73-1.53-0.88-2.37c-0.1-0.55-0.15-1.12-0.22-1.71h3.37
		C18.14,16.52,18.08,17.18,17.95,17.81z M18.41,19.98c0.64-1.34,0.83-2.71,0.92-4.11h2.2C21.24,17.78,20.23,19.13,18.41,19.98z
		 M19.37,14.72c-0.1-0.71-0.16-1.4-0.31-2.08c-0.14-0.67-0.36-1.32-0.54-1.95c1.28,0.41,2.79,2,3,4.03H19.37z"/>
	<polygon fill="#D29D3F" points="23.91,9.25 24.08,10.71 25.13,9.7 25.52,9.78 26.57,9.99 26.31,9.44 25.93,8.67 26.36,7.92 
		26.65,7.4 26.05,7.48 25.2,7.6 24.42,6.75 24.21,6.52 24.17,6.75 23.98,7.87 23.96,7.96 22.62,8.56 	"/>
</g>
</svg>
