<?xml version="1.0" encoding="utf-8"?>
<!-- Generator: Adobe Illustrator 25.0.1, SVG Export Plug-In . SVG Version: 6.00 Build 0)  -->
<svg version="1.1" id="Layer_1" xmlns="http://www.w3.org/2000/svg" xmlns:xlink="http://www.w3.org/1999/xlink" x="0px" y="0px"
	 viewBox="0 0 32 32" enable-background="new 0 0 32 32" xml:space="preserve">
<g>
	<path fill="#D29D3F" d="M15.61,22.91c-0.51-1.19-0.66-2.43-0.64-3.71c0.01-0.65,0.19-1.21,0.74-1.69c-0.14,0-0.22,0-0.3,0
		c-1.8,0-3.6,0-5.41,0c-0.1,0-0.21,0-0.3-0.03c-0.21-0.05-0.35-0.24-0.35-0.45c0-0.21,0.14-0.4,0.35-0.45
		c0.1-0.02,0.2-0.02,0.3-0.02c2.64,0,5.27,0,7.91,0c0.14,0,0.29-0.03,0.42-0.09c0.54-0.28,1.09-0.56,1.62-0.88
		c0.74-0.45,1.47-0.48,2.21-0.01c0.09,0.06,0.19,0.11,0.29,0.17c0-0.83,0-1.63,0-2.45c-0.1,0-0.18,0-0.26,0c-1.12,0-2.24,0-3.36,0
		c-1.44-0.01-2.45-1.01-2.45-2.45c0-1.13,0-2.26,0-3.38c0-0.08,0-0.16,0-0.26c-0.13,0-0.24,0-0.35,0c-2.34,0-4.69,0-7.03,0
		c-1.47,0-2.46,1-2.46,2.47c0,4.91,0,9.83,0,14.74c0,1.47,1,2.47,2.47,2.47c3.3,0,6.61,0,9.91,0c0.07,0,0.14,0,0.21,0
		c-0.17-0.16-0.35-0.29-0.53-0.4C17.24,25.58,16.25,24.4,15.61,22.91z M9.83,10.94c0.06,0,0.12,0,0.18,0c0.56,0,1.13,0,1.69,0
		c0.6,0,1.2,0,1.8,0c0.32,0,0.53,0.19,0.53,0.46c0.01,0.28-0.21,0.47-0.54,0.48c-0.05,0-0.1,0-0.15,0c-0.95,0-1.9,0-2.86,0
		c-0.22,0-0.44,0.01-0.66,0c-0.29-0.01-0.48-0.21-0.48-0.47C9.35,11.15,9.55,10.96,9.83,10.94z M9.77,13.76
		c0.08-0.01,0.16-0.01,0.24-0.01c1.03,0,2.05,0,3.08,0c1.05,0,2.09,0,3.14,0c0.09,0,0.19,0,0.28,0.03c0.2,0.05,0.34,0.23,0.34,0.43
		c0,0.21-0.14,0.4-0.34,0.45c-0.09,0.02-0.19,0.03-0.28,0.03c-2.08,0-4.16,0-6.24,0c-0.07,0-0.15,0-0.22-0.01
		c-0.25-0.04-0.41-0.23-0.41-0.46C9.35,13.98,9.52,13.8,9.77,13.76z M9.83,19.38c0.06,0,0.12,0,0.18,0c0.56,0,1.11,0,1.67,0
		c0.62,0,1.23,0,1.85,0c0.21,0,0.37,0.08,0.47,0.27c0.08,0.17,0.06,0.33-0.05,0.48c-0.12,0.17-0.3,0.2-0.49,0.2
		c-0.93,0-1.86,0-2.79,0c-0.28,0-0.56,0.01-0.83,0c-0.29-0.01-0.48-0.21-0.48-0.47C9.35,19.59,9.55,19.4,9.83,19.38z M14.89,22.92
		c-0.12,0.18-0.3,0.21-0.5,0.21c-0.75,0-1.49,0-2.24,0c-0.73,0-1.46,0-2.19,0c-0.1,0-0.21,0-0.3-0.04c-0.2-0.07-0.31-0.22-0.31-0.44
		c0-0.21,0.11-0.36,0.31-0.43c0.06-0.02,0.13-0.03,0.19-0.03c1.54,0,3.07,0,4.61,0c0.2,0,0.36,0.07,0.46,0.25
		C15,22.6,14.99,22.77,14.89,22.92z"/>
	<path fill="#D29D3F" d="M26.23,19.04c-0.01-0.48-0.27-0.81-0.73-0.95c-0.35-0.1-0.7-0.2-1.05-0.33c-0.98-0.35-1.9-0.83-2.78-1.39
		c-0.41-0.26-0.8-0.26-1.21,0c-1.18,0.77-2.46,1.32-3.81,1.71c-0.49,0.14-0.74,0.48-0.75,0.98c0,0.29-0.01,0.59,0,0.88
		c0.1,2.39,1.13,4.29,3.09,5.68c0.48,0.34,0.98,0.65,1.46,0.98c0.4,0.27,0.8,0.29,1.2,0.01c0.42-0.28,0.84-0.56,1.26-0.84
		c2.21-1.47,3.29-3.54,3.3-6.18C26.23,19.4,26.23,19.22,26.23,19.04z M22.77,20.69c-0.18,0.18-0.36,0.36-0.54,0.54
		c-0.41,0.41-0.82,0.82-1.23,1.23c-0.28,0.28-0.52,0.28-0.8,0c-0.28-0.27-0.55-0.55-0.82-0.82c-0.23-0.24-0.25-0.52-0.05-0.72
		c0.2-0.2,0.47-0.18,0.72,0.06c0.18,0.17,0.35,0.35,0.54,0.54c0.44-0.44,0.88-0.87,1.31-1.29c0.07-0.07,0.14-0.15,0.22-0.22
		c0.22-0.21,0.49-0.22,0.69-0.03C23,20.17,22.99,20.46,22.77,20.69z"/>
	<path fill="#D29D3F" d="M18.85,12.34c1,0,1.99,0,2.99,0c0.07,0,0.14-0.01,0.25-0.01c-0.09-0.12-0.16-0.21-0.24-0.3
		c-1.37-1.4-2.73-2.8-4.1-4.19c-0.11-0.12-0.26-0.2-0.43-0.34c0,0.13,0,0.2,0,0.27c0,1.01,0,2.02,0,3.03
		C17.32,11.76,17.9,12.34,18.85,12.34z"/>
</g>
</svg>
