<?xml version="1.0" encoding="utf-8"?>
<!-- Generator: Adobe Illustrator 25.0.1, SVG Export Plug-In . SVG Version: 6.00 Build 0)  -->
<svg version="1.1" id="Layer_1" xmlns="http://www.w3.org/2000/svg" xmlns:xlink="http://www.w3.org/1999/xlink" x="0px" y="0px"
	 viewBox="0 0 32 32" enable-background="new 0 0 32 32" xml:space="preserve">
<g>
	<g>
		<path fill="#AEB0B8" d="M25.04,22.63c-0.02-0.05-0.05-0.09-0.08-0.13c-0.79-1.36-1.58-2.71-2.37-4.07
			c-0.03-0.06-0.07-0.12-0.1-0.19c0.21-0.08,0.42-0.14,0.62-0.22c0.44-0.18,0.62-0.45,0.57-0.92c-0.03-0.31-0.09-0.62-0.16-0.92
			c-0.11-0.45-0.01-0.84,0.29-1.19c0.21-0.24,0.4-0.48,0.58-0.73c0.21-0.29,0.26-0.6,0.06-0.91c-0.22-0.34-0.46-0.68-0.7-1
			c-0.28-0.36-0.38-0.75-0.27-1.2c0.05-0.22,0.09-0.44,0.14-0.65c0.13-0.67-0.06-1.01-0.7-1.24c-0.23-0.08-0.46-0.16-0.69-0.22
			c-0.43-0.12-0.71-0.4-0.86-0.82c-0.1-0.29-0.21-0.59-0.34-0.87c-0.18-0.4-0.43-0.55-0.87-0.5c-0.27,0.03-0.54,0.08-0.8,0.16
			c-0.57,0.18-1.04,0.05-1.48-0.34c-0.29-0.26-0.65-0.44-0.97-0.66c-0.1,0-0.2,0-0.31,0c-0.07,0.03-0.14,0.05-0.21,0.09
			c-0.41,0.27-0.83,0.53-1.22,0.82c-0.23,0.17-0.46,0.23-0.73,0.18c-0.28-0.06-0.56-0.12-0.84-0.19c-0.69-0.15-1,0.01-1.26,0.68
			c-0.08,0.21-0.16,0.42-0.23,0.63c-0.15,0.45-0.44,0.73-0.89,0.86c-0.29,0.08-0.57,0.18-0.85,0.3c-0.44,0.18-0.6,0.44-0.55,0.92
			c0.03,0.3,0.09,0.59,0.16,0.88c0.12,0.47,0.01,0.86-0.29,1.23c-0.21,0.25-0.41,0.52-0.6,0.79c-0.26,0.38-0.26,0.76,0.03,1.13
			c0.18,0.23,0.36,0.46,0.56,0.68c0.29,0.34,0.4,0.71,0.3,1.15c-0.07,0.31-0.13,0.62-0.17,0.94c-0.05,0.36,0.05,0.66,0.4,0.84
			c0.19,0.09,0.38,0.17,0.58,0.24c0.21,0.08,0.23,0.1,0.12,0.29c-0.23,0.39-0.45,0.78-0.68,1.18c-0.58,1-1.17,2.01-1.74,3.01
			c-0.21,0.37-0.08,0.6,0.35,0.62c0.52,0.02,1.03,0.05,1.55,0.07c0.51,0.02,0.9,0.24,1.17,0.67c0.26,0.41,0.52,0.83,0.79,1.25
			c0.3,0.47,0.54,0.47,0.82-0.01c0.79-1.37,1.58-2.74,2.38-4.1c0.2-0.34,0.15-0.35,0.47-0.11c0.61,0.45,1,0.43,1.59-0.04
			c0.06-0.05,0.13-0.1,0.21-0.15c0.05,0.09,0.1,0.16,0.14,0.23c0.82,1.41,1.64,2.82,2.46,4.23c0.22,0.38,0.49,0.38,0.73,0.01
			c0.28-0.44,0.56-0.89,0.84-1.33c0.27-0.43,0.67-0.65,1.18-0.67c0.52-0.02,1.05-0.04,1.57-0.07C25.09,23.2,25.22,22.98,25.04,22.63
			z M16.74,19.41c-3.16,0-5.63-2.48-5.73-5.55c-0.1-3.28,2.52-5.93,5.77-5.92c3.15,0.01,5.63,2.51,5.68,5.59
			C22.51,16.81,19.99,19.38,16.74,19.41z"/>
		<path fill="#AEB0B8" d="M16.52,8.82c-2.59,0.08-4.7,2.32-4.63,4.97c0.07,2.7,2.36,4.85,5.11,4.71c2.62-0.14,4.58-2.29,4.58-4.8
			C21.6,10.88,19.25,8.74,16.52,8.82z M19.75,13.26c-0.23,0.25-0.49,0.48-0.73,0.73c-0.34,0.34-0.48,0.74-0.4,1.22
			c0.06,0.35,0.13,0.7,0.17,1.06c0.01,0.1-0.03,0.26-0.1,0.32c-0.06,0.05-0.22,0.04-0.32-0.01c-0.32-0.15-0.63-0.33-0.95-0.49
			c-0.43-0.22-0.86-0.22-1.28,0c-0.33,0.17-0.65,0.35-0.99,0.51c-0.25,0.11-0.4,0-0.39-0.33c0.05-0.3,0.11-0.66,0.17-1.02
			c0.08-0.49-0.04-0.91-0.4-1.26c-0.24-0.24-0.49-0.46-0.72-0.71c-0.08-0.09-0.16-0.25-0.13-0.34c0.03-0.09,0.19-0.17,0.31-0.2
			c0.32-0.07,0.65-0.11,0.98-0.15c0.5-0.07,0.86-0.34,1.08-0.79c0.15-0.3,0.28-0.6,0.45-0.89c0.06-0.1,0.19-0.22,0.29-0.23
			c0.09,0,0.21,0.13,0.27,0.23c0.14,0.25,0.27,0.51,0.39,0.77c0.25,0.59,0.7,0.88,1.33,0.94c0.27,0.02,0.55,0.06,0.81,0.12
			c0.11,0.02,0.26,0.1,0.29,0.19C19.9,13.02,19.83,13.18,19.75,13.26z"/>
	</g>
</g>
</svg>
