<?xml version="1.0" encoding="utf-8"?>
<!-- Generator: Adobe Illustrator 25.0.1, SVG Export Plug-In . SVG Version: 6.00 Build 0)  -->
<svg version="1.1" id="Layer_1" xmlns="http://www.w3.org/2000/svg" xmlns:xlink="http://www.w3.org/1999/xlink" x="0px" y="0px"
	 viewBox="0 0 32 32" enable-background="new 0 0 32 32" xml:space="preserve">
<g>
	<path fill="#D29D3F" d="M27.38,16.28c0-0.23-0.13-0.37-0.36-0.39c-0.3-0.03-0.6-0.08-0.9-0.11c-0.07-0.01-0.09-0.04-0.11-0.09
		c-0.13-0.33-0.27-0.65-0.4-0.98c-0.02-0.06-0.03-0.09,0.01-0.14c0.19-0.24,0.38-0.48,0.57-0.72c0.14-0.18,0.13-0.35-0.03-0.51
		c-0.34-0.34-0.68-0.68-1.02-1.02c-0.16-0.16-0.34-0.17-0.51-0.03c-0.24,0.19-0.48,0.37-0.72,0.56c-0.05,0.04-0.09,0.05-0.16,0.02
		c-0.32-0.14-0.64-0.27-0.97-0.4c-0.06-0.02-0.09-0.04-0.09-0.11c-0.03-0.3-0.07-0.6-0.11-0.9c-0.03-0.24-0.16-0.36-0.4-0.36
		c-0.47,0-0.95,0-1.42,0c-0.24,0-0.37,0.12-0.39,0.36c-0.03,0.3-0.07,0.6-0.11,0.9c-0.01,0.06-0.03,0.09-0.09,0.11
		c-0.33,0.13-0.65,0.26-0.98,0.4c-0.06,0.03-0.1,0.02-0.15-0.02c-0.24-0.19-0.48-0.38-0.72-0.56c-0.18-0.14-0.36-0.13-0.52,0.03
		c-0.34,0.34-0.68,0.67-1.01,1.01c-0.16,0.16-0.17,0.34-0.03,0.51c0.19,0.24,0.38,0.49,0.57,0.72c0.04,0.05,0.04,0.09,0.01,0.15
		c-0.14,0.32-0.27,0.64-0.4,0.97c-0.02,0.06-0.05,0.09-0.12,0.1c-0.28,0.03-0.56,0.08-0.84,0.1c-0.2,0.01-0.34,0.09-0.42,0.26
		c0,0.57,0,1.14,0,1.71c0.09,0.18,0.23,0.25,0.42,0.26c0.28,0.02,0.56,0.07,0.83,0.1c0.08,0.01,0.1,0.04,0.12,0.11
		c0.13,0.32,0.26,0.64,0.4,0.95c0.03,0.07,0.02,0.11-0.02,0.16c-0.19,0.24-0.38,0.48-0.56,0.72c-0.14,0.18-0.13,0.35,0.03,0.51
		c0.34,0.34,0.68,0.68,1.02,1.02c0.16,0.16,0.33,0.17,0.51,0.03c0.24-0.19,0.48-0.37,0.71-0.56c0.05-0.04,0.1-0.05,0.16-0.02
		c0.32,0.14,0.64,0.27,0.97,0.4c0.06,0.03,0.09,0.05,0.1,0.12c0.03,0.28,0.08,0.56,0.1,0.83c0.01,0.2,0.09,0.34,0.26,0.42
		c0.57,0,1.14,0,1.71,0c0.18-0.09,0.25-0.23,0.26-0.42c0.02-0.28,0.06-0.56,0.1-0.85c0.01-0.04,0.05-0.08,0.08-0.1
		c0.33-0.14,0.66-0.27,0.99-0.41c0.06-0.03,0.1-0.02,0.14,0.02c0.24,0.19,0.48,0.38,0.73,0.57c0.18,0.14,0.35,0.13,0.51-0.03
		c0.34-0.34,0.68-0.68,1.02-1.02c0.16-0.16,0.17-0.33,0.03-0.51c-0.19-0.24-0.38-0.49-0.57-0.72c-0.05-0.06-0.04-0.1-0.02-0.16
		c0.14-0.32,0.27-0.63,0.4-0.96c0.03-0.07,0.05-0.1,0.13-0.1c0.3-0.03,0.59-0.07,0.89-0.11c0.24-0.03,0.36-0.16,0.36-0.39
		C27.39,17.23,27.39,16.76,27.38,16.28z M21.48,19.95c-1.63,0-2.96-1.33-2.95-2.96c0.01-1.63,1.33-2.95,2.95-2.95
		c1.63,0,2.96,1.33,2.95,2.96C24.43,18.63,23.1,19.95,21.48,19.95z"/>
	<path fill="#D29D3F" d="M17.33,22.32c-0.03-0.18-0.14-0.26-0.32-0.25c-0.23,0.01-0.46,0.02-0.69,0.03c-0.05,0-0.07-0.02-0.09-0.06
		c-0.14-0.23-0.28-0.46-0.42-0.68c-0.03-0.04-0.03-0.07-0.01-0.11c0.11-0.2,0.23-0.41,0.34-0.61c0.08-0.15,0.05-0.28-0.08-0.38
		c-0.3-0.21-0.59-0.43-0.89-0.64c-0.14-0.1-0.27-0.09-0.39,0.04c-0.16,0.17-0.31,0.34-0.47,0.51c-0.04,0.04-0.06,0.05-0.12,0.04
		c-0.26-0.06-0.51-0.12-0.77-0.18c-0.04-0.01-0.07-0.02-0.08-0.07c-0.06-0.22-0.13-0.44-0.19-0.66c-0.05-0.18-0.16-0.25-0.35-0.22
		c-0.35,0.06-0.71,0.12-1.06,0.18c-0.18,0.03-0.26,0.14-0.25,0.32c0.01,0.23,0.02,0.46,0.03,0.69c0,0.05-0.01,0.07-0.05,0.09
		c-0.23,0.14-0.46,0.28-0.68,0.42c-0.04,0.03-0.07,0.03-0.12,0c-0.2-0.11-0.4-0.22-0.6-0.33c-0.16-0.08-0.28-0.06-0.39,0.09
		c-0.21,0.29-0.42,0.59-0.63,0.88c-0.1,0.14-0.09,0.27,0.04,0.39c0.17,0.16,0.34,0.32,0.52,0.47c0.04,0.03,0.04,0.06,0.03,0.11
		c-0.06,0.26-0.12,0.51-0.18,0.77c-0.01,0.05-0.03,0.07-0.08,0.09c-0.2,0.06-0.41,0.13-0.61,0.18c-0.14,0.03-0.24,0.11-0.28,0.25
		c0.07,0.43,0.14,0.85,0.21,1.28c0.09,0.12,0.2,0.16,0.35,0.14c0.21-0.02,0.42-0.02,0.64-0.03c0.06,0,0.08,0.02,0.11,0.06
		c0.13,0.22,0.27,0.45,0.41,0.66c0.03,0.05,0.03,0.08,0.01,0.12c-0.11,0.2-0.22,0.4-0.33,0.6c-0.08,0.15-0.05,0.28,0.09,0.38
		c0.29,0.21,0.59,0.43,0.89,0.64c0.14,0.1,0.27,0.09,0.39-0.04c0.16-0.17,0.31-0.34,0.46-0.51c0.04-0.04,0.07-0.05,0.12-0.04
		c0.26,0.06,0.51,0.12,0.77,0.18c0.05,0.01,0.07,0.03,0.09,0.08c0.06,0.2,0.13,0.41,0.18,0.61c0.03,0.14,0.11,0.24,0.25,0.28
		c0.43-0.07,0.85-0.14,1.28-0.21c0.12-0.09,0.16-0.2,0.14-0.35c-0.02-0.21-0.02-0.43-0.03-0.65c0-0.03,0.02-0.07,0.05-0.08
		c0.23-0.15,0.46-0.28,0.69-0.43c0.04-0.03,0.07-0.03,0.11,0c0.2,0.11,0.41,0.23,0.61,0.34c0.15,0.08,0.28,0.05,0.38-0.09
		c0.21-0.3,0.42-0.59,0.64-0.89c0.1-0.14,0.08-0.27-0.04-0.38c-0.17-0.16-0.34-0.32-0.52-0.47c-0.04-0.04-0.05-0.07-0.03-0.12
		c0.06-0.25,0.12-0.51,0.18-0.76c0.01-0.05,0.03-0.08,0.08-0.09c0.22-0.06,0.44-0.13,0.65-0.19c0.17-0.05,0.25-0.16,0.22-0.34
		C17.45,23.03,17.39,22.68,17.33,22.32z M13.37,25.79c-1.22,0.2-2.38-0.63-2.57-1.85c-0.2-1.22,0.63-2.37,1.84-2.57
		c1.22-0.2,2.38,0.63,2.57,1.85C15.41,24.44,14.58,25.59,13.37,25.79z"/>
	<path fill="#D29D3F" d="M10.4,18.95l1.06-1.06c-1.21-0.74-2.01-2.07-2.01-3.59c0-2.32,1.87-4.2,4.2-4.2c1.53,0,2.86,0.8,3.6,2.01
		l1.08-1.08c-0.68-1-1.68-1.72-2.99-2.14c-3.04-0.96-6.21,0.75-7.12,3.78C7.5,15.07,8.42,17.57,10.4,18.95z"/>
	<path fill="#D29D3F" d="M10.13,19.57c0.04-0.04,0.08-0.07,0.14-0.11c-0.72-0.48-1.29-1.05-1.76-1.75
		c-0.04,0.03-0.07,0.05-0.09,0.08c-0.78,0.78-1.57,1.56-2.35,2.35c-0.43,0.44-0.52,1-0.22,1.53c0.18,0.32,0.47,0.51,0.83,0.59
		c0.03,0.01,0.06,0.02,0.09,0.02c0.09,0,0.18,0,0.27,0c0.39-0.06,0.68-0.28,0.94-0.56C8.69,21,9.41,20.29,10.13,19.57z"/>
</g>
</svg>
