<?xml version="1.0" encoding="utf-8"?>
<!-- Generator: Adobe Illustrator 25.0.1, SVG Export Plug-In . SVG Version: 6.00 Build 0)  -->
<svg version="1.1" id="Layer_1" xmlns="http://www.w3.org/2000/svg" xmlns:xlink="http://www.w3.org/1999/xlink" x="0px" y="0px"
	 viewBox="0 0 32 32" enable-background="new 0 0 32 32" xml:space="preserve">
<g>
	<path fill="#D29D3F" d="M7.56,17.44c-1.4,0.1-2.39,0.82-2.99,2.08c-0.15,0.33-0.21,0.7-0.32,1.05c0,1.52,0,3.04,0,4.56
		c0.01,0.01,0.02,0.02,0.03,0.04c0.15,1.1,1.11,1.88,2.27,1.84c0.7-0.02,1.41,0,2.11,0c0.28,0,0.56,0,0.83,0
		c-0.03-0.3-0.08-0.57-0.09-0.85c-0.01-2.31-0.02-4.62,0.01-6.93c0.01-0.54,0.15-1.07,0.23-1.61c0.01-0.06,0.03-0.12,0.04-0.19
		C8.96,17.43,8.25,17.39,7.56,17.44z"/>
	<path fill="#D29D3F" d="M22.17,18.34c-0.39-1.66-1.76-2.76-3.48-2.77c-1.43-0.01-2.86-0.01-4.29,0c-0.26,0-0.53,0.02-0.78,0.08
		c-1.69,0.39-2.78,1.78-2.79,3.52c-0.01,2.33,0,4.65,0,6.98c0,0.59,0.26,0.85,0.85,0.85c1.62,0,3.23,0,4.85,0c1.64,0,3.28,0,4.92,0
		c0.56,0,0.82-0.26,0.82-0.82c0-2.33,0-4.65,0-6.98C22.25,18.91,22.23,18.62,22.17,18.34z"/>
	<path fill="#D29D3F" d="M16.54,14.69c2.34,0,4.27-1.93,4.27-4.29c0-2.32-1.92-4.24-4.26-4.24c-2.34-0.01-4.28,1.91-4.28,4.24
		C12.28,12.76,14.2,14.69,16.54,14.69z"/>
	<path fill="#D29D3F" d="M28.82,20.88c-0.03-1.82-1.44-3.31-3.26-3.44c-0.64-0.05-1.29-0.02-1.94-0.03c-0.07,0-0.14,0.01-0.22,0.02
		c0.01,0.05,0,0.08,0.01,0.11c0.22,0.64,0.27,1.29,0.27,1.96c0,1.98,0,3.95,0,5.93c0,0.52-0.03,1.03-0.05,1.57
		c1.07,0,2.16,0.04,3.25-0.01c1.11-0.05,1.93-0.97,1.94-2.12C28.84,23.53,28.85,22.2,28.82,20.88z"/>
	<path fill="#D29D3F" d="M9.05,16.52c1.76-0.01,3.2-1.46,3.18-3.22c-0.02-1.75-1.44-3.16-3.19-3.15c-1.76,0.01-3.19,1.44-3.18,3.19
		C5.87,15.09,7.31,16.52,9.05,16.52z"/>
	<path fill="#D29D3F" d="M24.04,16.52c1.76-0.01,3.19-1.45,3.18-3.2c0-1.76-1.44-3.18-3.19-3.18c-1.76,0-3.2,1.44-3.18,3.19
		C20.86,15.09,22.3,16.52,24.04,16.52z"/>
</g>
</svg>
