<?xml version="1.0" encoding="utf-8"?>
<!-- Generator: Adobe Illustrator 25.0.1, SVG Export Plug-In . SVG Version: 6.00 Build 0)  -->
<svg version="1.1" id="Layer_1" xmlns="http://www.w3.org/2000/svg" xmlns:xlink="http://www.w3.org/1999/xlink" x="0px" y="0px"
	 viewBox="0 0 32 32" enable-background="new 0 0 32 32" xml:space="preserve">
<g>
	<path fill="#D29D3F" d="M28.75,20.79c-1.57-2.28-3.14-4.57-4.71-6.85c-0.19-0.28-0.33-0.3-0.61-0.11
		c-0.27,0.18-0.53,0.37-0.84,0.58c0.38-2.13-0.01-4.04-1.3-5.71c-1.3-1.69-3.04-2.6-5.17-2.72c-1.81-0.1-3.45,0.44-4.82,1.62
		c-2.04,1.76-2.79,4.02-2.38,6.71c-0.29-0.2-0.53-0.36-0.78-0.53c-0.33-0.22-0.45-0.21-0.67,0.11c-1.55,2.25-3.1,4.51-4.65,6.76
		C2.57,21,2.59,21.1,2.95,21.35c0.69,0.47,1.37,0.94,2.06,1.42c0.54,0.37,0.62,0.53,1.06-0.15c0-0.01,0.01-0.01,0.01-0.01
		c0.43,0.51,0.85,1,1.28,1.5c-0.74,0.85-0.41,2.06,0.8,2.34c-0.34,0.64-0.31,1.25,0.25,1.74c0.19,0.17,0.47,0.27,0.73,0.32
		c0.4,0.08,0.75-0.11,1.06-0.36c0.49,0.73,0.89,0.87,1.84,0.64c0.24,0.54,0.63,0.87,1.24,0.88c0.62,0.02,0.99-0.36,1.3-0.83
		c0.62,0.39,1.2,0.77,1.8,1.13c0.89,0.54,1.97,0.09,2.19-0.91c0.02-0.09,0.03-0.19,0.04-0.3c0.49,0.18,0.95,0.16,1.39-0.13
		c0.44-0.29,0.62-0.73,0.66-1.26c0.52,0.09,0.98,0.01,1.36-0.35c0.38-0.35,0.49-0.81,0.44-1.31c0.57-0.03,0.99-0.25,1.27-0.72
		c0.28-0.48,0.24-0.96,0.04-1.39c0.56-0.34,1.09-0.67,1.63-1.01c0.06,0.09,0.15,0.21,0.23,0.33c0.19,0.28,0.34,0.31,0.61,0.12
		c0.81-0.55,1.61-1.11,2.42-1.66C28.9,21.19,28.93,21.05,28.75,20.79z M14.5,6.73c3.56-0.75,7.08,1.79,7.52,5.41
		c0.1,0.87,0.04,1.71-0.2,2.55c-0.06,0.2-0.15,0.36-0.33,0.46c-0.18,0.1-0.34,0.23-0.52,0.35c-0.2,0.14-0.23,0.32-0.1,0.52
		c0.12,0.19,0.25,0.37,0.41,0.6c-0.87,0.12-1.67,0.1-2.42-0.26c-0.7-0.34-1.4-0.4-2.13-0.19c-0.97,0.27-1.92,0.57-2.9,0.8
		c-0.46,0.11-0.97,0.09-1.45,0.07c-0.72-0.04-1.41-0.2-2.06-0.6c0.1-0.14,0.18-0.27,0.27-0.41c0.2-0.29,0.18-0.43-0.11-0.63
		c-0.02-0.02-0.04-0.03-0.07-0.05c-0.65-0.28-0.82-0.83-0.91-1.47C9.04,10.52,11.19,7.43,14.5,6.73z M7.9,25.65
		c-0.31-0.22-0.37-0.61-0.13-0.96c0.31-0.45,0.61-0.9,0.93-1.34C8.9,23.09,9.2,23,9.48,23.11c0.26,0.09,0.43,0.35,0.43,0.71
		c-0.03,0.07-0.07,0.22-0.16,0.35c-0.29,0.43-0.58,0.85-0.88,1.27C8.62,25.79,8.22,25.87,7.9,25.65z M9.84,27.53
		c-0.25,0.36-0.64,0.44-0.96,0.22c-0.32-0.22-0.38-0.62-0.13-0.98c0.74-1.07,1.48-2.14,2.23-3.21c0.2-0.28,0.49-0.38,0.78-0.28
		c0.27,0.09,0.46,0.36,0.46,0.72c-0.03,0.07-0.07,0.22-0.16,0.34C11.32,25.41,10.58,26.47,9.84,27.53z M11.89,28.03
		c-0.1,0.13-0.31,0.19-0.47,0.28c-0.52-0.06-0.86-0.6-0.6-1.02c0.42-0.66,0.88-1.3,1.35-1.94c0.2-0.27,0.59-0.3,0.86-0.11
		c0.28,0.19,0.4,0.58,0.21,0.86C12.81,26.75,12.36,27.4,11.89,28.03z M14.62,27.6c-0.26,0.41-0.53,0.82-0.84,1.2
		c-0.11,0.13-0.31,0.18-0.47,0.27c-0.52-0.06-0.85-0.59-0.59-1.02c0.25-0.42,0.53-0.82,0.83-1.2c0.22-0.28,0.6-0.3,0.88-0.09
		C14.69,26.95,14.79,27.32,14.62,27.6z M23.13,24.7c-0.2,0.31-0.61,0.44-0.96,0.28c-0.11-0.05-0.21-0.11-0.31-0.18
		c-1.13-0.71-2.27-1.43-3.4-2.14c-0.08-0.05-0.16-0.13-0.23-0.13c-0.14,0.01-0.32,0.04-0.38,0.13c-0.06,0.08,0,0.26,0.04,0.38
		c0.02,0.06,0.12,0.1,0.19,0.14c1.09,0.69,2.17,1.37,3.26,2.06c0.22,0.14,0.4,0.31,0.44,0.58c0.05,0.31-0.04,0.58-0.31,0.76
		c-0.28,0.19-0.58,0.21-0.87,0.03c-0.46-0.28-0.92-0.57-1.38-0.86c-0.64-0.4-1.27-0.8-1.91-1.2c-0.06-0.04-0.12-0.08-0.18-0.11
		c-0.18-0.1-0.34-0.07-0.45,0.1c-0.11,0.17-0.06,0.34,0.11,0.45c0.32,0.21,0.64,0.41,0.96,0.61c0.57,0.36,1.13,0.71,1.7,1.07
		c0.5,0.32,0.66,0.78,0.39,1.18c-0.27,0.4-0.72,0.46-1.22,0.14c-0.68-0.43-1.36-0.87-2.04-1.3c-0.05-0.03-0.11-0.07-0.16-0.1
		c-0.18-0.11-0.36-0.1-0.47,0.08c-0.12,0.18-0.05,0.35,0.13,0.47c0.43,0.28,0.87,0.56,1.3,0.83c0.1,0.06,0.2,0.13,0.29,0.21
		c0.29,0.26,0.34,0.69,0.13,1.01c-0.21,0.31-0.63,0.46-0.96,0.27c-0.64-0.37-1.26-0.77-1.89-1.17c0.84-1.01,0.28-2.28-0.97-2.36
		c0.02-0.82-0.39-1.32-1.2-1.49c0.14-0.93-0.05-1.42-0.64-1.73c-0.57-0.29-1.13-0.16-1.7,0.41c-0.33-0.54-0.79-0.8-1.43-0.71
		c-0.64,0.09-0.91,0.63-1.25,1.11c-0.49-0.45-0.9-0.93-1.2-1.49C6.54,22,6.56,21.89,6.6,21.84c1.1-1.61,2.21-3.23,3.34-4.86
		c0.7,0.43,1.46,0.62,2.22,0.71c-0.49,0.71-0.99,1.42-1.48,2.12c-0.3,0.43-0.24,0.65,0.2,0.9c1.1,0.61,2.17,0.52,3.2-0.17
		c0.33-0.23,0.62-0.53,0.94-0.78c0.1-0.08,0.23-0.1,0.35-0.14c0.04-0.01,0.09,0.01,0.13,0c0.83-0.04,1.52,0.26,2.21,0.72
		c1.63,1.08,3.3,2.1,4.96,3.14c0.11,0.07,0.22,0.13,0.31,0.22C23.29,23.95,23.34,24.38,23.13,24.7z M23.29,22.96
		c-0.1,0.02-0.25-0.03-0.35-0.09c-1.91-1.2-3.81-2.4-5.73-3.59c-0.19-0.12-0.43-0.19-0.65-0.22c-0.4-0.06-0.81-0.06-1.22-0.1
		c-0.3-0.03-0.53,0.09-0.75,0.29c-0.37,0.33-0.75,0.67-1.17,0.92c-0.7,0.41-1.43,0.39-2.17,0c0.04-0.08,0.08-0.14,0.12-0.21
		c0.29-0.43,0.59-0.85,0.87-1.28c0.23-0.34,0.53-0.6,0.91-0.75c1.32-0.53,2.69-0.9,4.08-1.19c0.39-0.08,0.77-0.04,1.14,0.14
		c0.94,0.47,1.94,0.56,2.96,0.39c0.26-0.04,0.4,0.02,0.55,0.24c0.96,1.42,1.93,2.82,2.9,4.23c0.05,0.07,0.1,0.15,0.15,0.23
		C24.49,22.48,23.94,22.81,23.29,22.96z"/>
	<path fill="#D29D3F" d="M14.63,14.85c0.17,0.17,0.35,0.17,0.52,0c1.13-1.13,2.25-2.25,3.38-3.38c0.15-0.15,0.18-0.33,0.03-0.48
		c-0.16-0.17-0.34-0.13-0.5,0.03c-0.22,0.22-0.45,0.45-0.67,0.67c-0.82,0.83-1.65,1.65-2.5,2.51c-0.49-0.5-0.97-0.97-1.44-1.45
		c-0.15-0.16-0.33-0.22-0.5-0.05c-0.17,0.16-0.13,0.34,0.03,0.5C13.53,13.75,14.08,14.3,14.63,14.85z"/>
</g>
</svg>
