<?xml version="1.0" encoding="utf-8"?>
<!-- Generator: Adobe Illustrator 25.0.1, SVG Export Plug-In . SVG Version: 6.00 Build 0)  -->
<svg version="1.1" id="Layer_1" xmlns="http://www.w3.org/2000/svg" xmlns:xlink="http://www.w3.org/1999/xlink" x="0px" y="0px"
	 viewBox="0 0 32 32" enable-background="new 0 0 32 32" xml:space="preserve">
<g>
	<path fill="#D29D3F" d="M7.71,25.42c-0.95,0-1.53-0.59-1.53-1.54c0-2.64,0-5.28,0-7.92c0-2.64,0-5.28,0-7.92
		c0-0.97,0.58-1.55,1.54-1.55c3.71,0,7.41,0,11.12,0c0.97,0,1.54,0.58,1.54,1.55V13c0.26-0.34,0.58-0.64,0.94-0.87
		c0-1.36,0-2.72,0-4.08c0-0.18,0-0.36-0.03-0.53c-0.22-1.2-1.18-1.98-2.44-1.98c-3.71,0-7.43,0-11.14,0c-0.28,0-0.58,0.04-0.85,0.13
		C5.84,5.99,5.24,6.88,5.24,8.01c0,2.65,0,5.3,0,7.95c0,2.63,0,5.25,0,7.88c0,0.19,0,0.39,0.03,0.57c0.22,1.19,1.18,1.97,2.43,1.97
		c3.12,0,6.24,0,9.36,0c-0.01-0.07-0.01-0.89-0.05-0.95C14.1,25.42,10.63,25.42,7.71,25.42z"/>
	<path fill="#D29D3F" d="M8.55,13.59c0,2.61,2.13,4.74,4.75,4.73c2.61-0.01,4.73-2.13,4.73-4.73c0-2.61-2.13-4.74-4.75-4.73
		C10.67,8.86,8.55,10.98,8.55,13.59z M9.62,14.52c-0.16-0.59-0.16-1.19-0.02-1.78c0.01-0.04,0.08-0.09,0.12-0.09
		c0.48-0.01,0.96,0,1.45,0v1.88H9.62z M10.02,15.49h1.27c0.15,0.52,0.31,1.02,0.47,1.56C11.02,16.72,10.45,16.21,10.02,15.49z
		 M11.29,11.68h-1.27c0.42-0.71,1-1.21,1.73-1.56C11.6,10.65,11.45,11.16,11.29,11.68z M13.54,17.23c-0.18,0.2-0.35,0.21-0.52-0.02
		c-0.19-0.25-0.35-0.53-0.47-0.82c-0.12-0.28-0.19-0.58-0.28-0.91h2.01C14.14,16.13,13.98,16.74,13.54,17.23z M16.87,12.65
		c0.04,0,0.1,0.1,0.11,0.15c0.13,0.57,0.12,1.14-0.03,1.72H15.4v-1.88C15.88,12.64,16.37,12.63,16.87,12.65z M16.55,11.68h-1.27
		c-0.15-0.5-0.3-1.01-0.46-1.55C15.55,10.46,16.12,10.97,16.55,11.68z M15.28,15.49h1.27c-0.43,0.72-1,1.22-1.74,1.56
		C14.97,16.53,15.12,16.02,15.28,15.49z M14.44,14.52h-2.31v-1.87h2.31V14.52z M13.59,9.99c0.3,0.35,0.45,0.78,0.58,1.21
		c0.05,0.15,0.08,0.31,0.12,0.48h-2c0.14-0.63,0.3-1.24,0.73-1.73C13.21,9.74,13.39,9.75,13.59,9.99z"/>
	<path fill="#D29D3F" d="M18,20.8c0.05-0.21-0.02-0.39-0.2-0.49c-0.1-0.06-0.22-0.08-0.34-0.08c-2.79,0-5.57,0-8.36,0
		c-0.05,0-0.1,0-0.15,0.01c-0.24,0.04-0.41,0.26-0.4,0.49c0.01,0.23,0.19,0.42,0.42,0.44c0.08,0.01,0.16,0.01,0.24,0.01
		c1.35,0,2.71,0,4.06,0c1.09,0,2.19,0,3.28,0c0.34,0,0.68,0,1.02-0.01C17.8,21.15,17.95,21.01,18,20.8z"/>
	<path fill="#D29D3F" d="M13.76,23.06c0.61,0,1.23,0,1.84,0c0.31,0,0.51-0.19,0.52-0.46c0.01-0.28-0.2-0.48-0.51-0.48
		c-0.78,0-1.55,0-2.33,0c-0.77,0-1.54,0-2.3,0c-0.29,0-0.48,0.14-0.53,0.38c-0.06,0.3,0.17,0.56,0.52,0.57
		C11.9,23.06,12.83,23.06,13.76,23.06z"/>
	<path fill="#D29D3F" d="M27.64,21.72c-0.45,0-0.9,0-1.36,0c-0.07,0-0.15-0.03-0.19-0.08c-0.15-0.14-0.29-0.29-0.42-0.45
		c-0.45-0.52-0.75-1.1-0.75-1.8c-0.01-0.79,0.22-1.48,0.75-2.09c1.39-1.57,0.73-4.02-1.25-4.7c-0.22-0.08-0.45-0.11-0.68-0.16h-0.56
		c-0.22,0.05-0.45,0.09-0.66,0.16c-0.48,0.16-0.88,0.42-1.19,0.75c-1,1.05-1.12,2.78-0.05,3.99c0.02,0.02,0.03,0.04,0.05,0.06
		c0.72,0.85,0.86,1.83,0.49,2.88c-0.11,0.31-0.29,0.58-0.49,0.83c-0.16,0.2-0.35,0.39-0.53,0.57c-0.03,0.03-0.09,0.04-0.14,0.04
		c-0.09,0-0.18,0-0.27,0c-0.39,0-0.77,0-1.15,0c-0.96,0.01-1.82,0.69-2,1.64c-0.08,0.42-0.05,0.85-0.06,1.28
		c-0.01,0.26,0.18,0.44,0.44,0.44c0.13,0,0.26,0,0.4,0c0,0.12,0,0.23,0,0.34c0,0.26,0,0.52-0.01,0.77c0,0.07,0,0.13,0.01,0.18
		c0.03,0.17,0.12,0.3,0.3,0.38h10.3c0.24-0.11,0.32-0.3,0.31-0.56c-0.02-0.33,0-0.66,0-0.99c0-0.04,0.01-0.08,0.01-0.12
		c0.14,0,0.26,0,0.38,0c0.28,0,0.45-0.17,0.45-0.45c0-0.26,0-0.52,0-0.78C29.75,22.65,28.83,21.73,27.64,21.72z M22.68,20.36
		c0.36-1.31,0.15-2.5-0.74-3.54c-0.71-0.83-0.78-1.95-0.12-2.75c0.56-0.67,1.28-0.94,2.14-0.73c0.83,0.21,1.37,0.76,1.55,1.6
		c0.15,0.67-0.01,1.29-0.47,1.8c-0.7,0.78-1,1.69-0.96,2.72c0.03,0.79,0.32,1.49,0.81,2.12c0.03,0.04,0.06,0.07,0.08,0.11
		c0,0,0,0.01,0.01,0.02h-3.04C22.27,21.29,22.54,20.86,22.68,20.36z M28.07,25.91h-7.69h-1.52v-0.49v-0.34h1.04h1.17h7.01V25.91z
		 M28.92,24.23h-7.61h-0.95h-2.37c0.03-0.27,0.02-0.54,0.09-0.79c0.14-0.54,0.64-0.88,1.22-0.88h1.09h0.94h3.03
		c1.08,0,2.15,0,3.23,0c0.8,0,1.33,0.54,1.33,1.33V24.23z"/>
</g>
</svg>
